{
	"asset":{
		"generator":"Khronos glTF Blender I/O v4.1.62",
		"version":"2.0"
	},
	"extensionsUsed":[
		"KHR_lights_punctual"
	],
	"extensionsRequired":[
		"KHR_lights_punctual"
	],
	"extensions":{
		"KHR_lights_punctual":{
			"lights":[
				{
					"color":[
						1,
						1,
						1
					],
					"intensity":543.5141306588226,
					"type":"point",
					"name":"Point.001"
				}
			]
		}
	},
	"scene":0,
	"scenes":[
		{
			"name":"Scene",
			"nodes":[
				22,
				23,
				24
			]
		}
	],
	"nodes":[
		{
			"name":"Area",
			"scale":[
				333.2502746582031,
				333.2502746582031,
				333.2502746582031
			],
			"translation":[
				0,
				908.281494140625,
				1000
			]
		},
		{
			"camera":0,
			"name":"Camera",
			"translation":[
				91.56175994873047,
				0,
				1000
			]
		},
		{
			"mesh":0,
			"name":"BrandValue",
			"translation":[
				-161.7103271484375,
				8.884246826171875,
				22.581817626953125
			]
		},
		{
			"mesh":1,
			"name":"CardPlane",
			"translation":[
				0,
				-91.46007537841797,
				11.581832885742188
			]
		},
		{
			"mesh":2,
			"name":"EmailTitle",
			"translation":[
				-32.98070526123047,
				11.386566162109375,
				1.52587890625e-05
			]
		},
		{
			"mesh":3,
			"name":"EmailValue",
			"translation":[
				0,
				-11.207328796386719,
				1.52587890625e-05
			]
		},
		{
			"children":[
				4,
				5
			],
			"name":"Email",
			"translation":[
				-158.5436248779297,
				-7.62939453125e-06,
				1.52587890625e-05
			]
		},
		{
			"mesh":4,
			"name":"PhonetTitle",
			"translation":[
				-32.98069763183594,
				11.386566162109375,
				1.52587890625e-05
			]
		},
		{
			"mesh":5,
			"name":"PhoneValue",
			"translation":[
				7.62939453125e-06,
				-11.207328796386719,
				1.52587890625e-05
			]
		},
		{
			"children":[
				7,
				8
			],
			"name":"Phone",
			"translation":[
				0.208831787109375,
				-7.62939453125e-06,
				1.52587890625e-05
			]
		},
		{
			"mesh":6,
			"name":"SocialLinkTitle",
			"translation":[
				-23.524383544921875,
				11.386566162109375,
				1.52587890625e-05
			]
		},
		{
			"mesh":7,
			"name":"SocialLinkValue",
			"translation":[
				1.52587890625e-05,
				-11.207328796386719,
				1.52587890625e-05
			]
		},
		{
			"children":[
				10,
				11
			],
			"name":"Social Link",
			"translation":[
				158.54360961914062,
				-7.62939453125e-06,
				1.52587890625e-05
			]
		},
		{
			"children":[
				6,
				9,
				12
			],
			"name":"Contact",
			"translation":[
				0,
				-173.4415283203125,
				22.581817626953125
			]
		},
		{
			"mesh":8,
			"name":"LabelContainer",
			"translation":[
				-11.7132568359375,
				2.7625045776367188,
				1.52587890625e-05
			]
		},
		{
			"mesh":9,
			"name":"LabelValue",
			"translation":[
				-11.7132568359375,
				2.7625045776367188,
				1.52587890625e-05
			]
		},
		{
			"children":[
				14,
				15
			],
			"name":"Label",
			"translation":[
				-149.3326416015625,
				-23.19623565673828,
				22.581817626953125
			]
		},
		{
			"children":[
				2,
				3,
				13,
				16
			],
			"name":"Card",
			"translation":[
				91.56175994873047,
				91.46007537841797,
				189.4181671142578
			]
		},
		{
			"name":"Default Ambient Light",
			"translation":[
				0,
				1,
				0
			]
		},
		{
			"mesh":10,
			"name":"Sphere",
			"scale":[
				39.214717864990234,
				39.214717864990234,
				39.214717864990234
			],
			"translation":[
				249.53184509277344,
				-59.4531135559082,
				0
			]
		},
		{
			"mesh":11,
			"name":"Sphere.001",
			"scale":[
				39.214717864990234,
				39.214717864990234,
				39.214717864990234
			],
			"translation":[
				-26.142358779907227,
				52.04051208496094,
				0
			]
		},
		{
			"children":[
				0,
				1,
				17,
				18,
				19,
				20
			],
			"name":"Scene 1"
		},
		{
			"children":[
				21
			],
			"name":"Node_0",
			"scale":[
				0.009999999776482582,
				0.009999999776482582,
				0.009999999776482582
			]
		},
		{
			"camera":1,
			"name":"Camera.001",
			"translation":[
				91.56175994873047,
				0,
				1000
			]
		},
		{
			"extensions":{
				"KHR_lights_punctual":{
					"light":0
				}
			},
			"name":"Point",
			"rotation":[
				-0.7071068286895752,
				0,
				0,
				0.7071068286895752
			],
			"translation":[
				0,
				0,
				7.6804046630859375
			]
		}
	],
	"cameras":[
		{
			"name":"Camera.001",
			"orthographic":{
				"xmag":4.760000228881836,
				"ymag":2.6775001287460327,
				"zfar":1000000,
				"znear":9.999999974752427e-07
			},
			"type":"orthographic"
		},
		{
			"name":"Camera.003",
			"orthographic":{
				"xmag":4.760000228881836,
				"ymag":2.6775001287460327,
				"zfar":1000000,
				"znear":9.999999974752427e-07
			},
			"type":"orthographic"
		}
	],
	"materials":[
		{
			"doubleSided":true,
			"name":"Material.002",
			"pbrMetallicRoughness":{
				"baseColorFactor":[
					0.800000011920929,
					0.800000011920929,
					0.800000011920929,
					1
				],
				"metallicFactor":0,
				"roughnessFactor":0.5
			}
		},
		{
			"doubleSided":true,
			"name":"Material.008",
			"pbrMetallicRoughness":{}
		},
		{
			"doubleSided":true,
			"name":"Material.011",
			"pbrMetallicRoughness":{
				"baseColorFactor":[
					0.800000011920929,
					0.800000011920929,
					0.800000011920929,
					1
				],
				"metallicFactor":0,
				"roughnessFactor":0.5
			}
		},
		{
			"doubleSided":true,
			"name":"Material.010",
			"pbrMetallicRoughness":{
				"baseColorFactor":[
					0.800000011920929,
					0.800000011920929,
					0.800000011920929,
					1
				],
				"metallicFactor":0,
				"roughnessFactor":0.5
			}
		},
		{
			"doubleSided":true,
			"name":"Material.009",
			"pbrMetallicRoughness":{
				"baseColorFactor":[
					0.800000011920929,
					0.800000011920929,
					0.800000011920929,
					1
				],
				"metallicFactor":0,
				"roughnessFactor":0.5
			}
		},
		{
			"doubleSided":true,
			"name":"Material.012",
			"pbrMetallicRoughness":{
				"baseColorFactor":[
					0.0656052976846695,
					0.0656052976846695,
					0.0656052976846695,
					1
				],
				"metallicFactor":0,
				"roughnessFactor":0.5
			}
		},
		{
			"doubleSided":true,
			"name":"Material.013",
			"pbrMetallicRoughness":{
				"baseColorFactor":[
					0.800000011920929,
					0.800000011920929,
					0.800000011920929,
					1
				],
				"metallicFactor":0,
				"roughnessFactor":0.5
			}
		},
		{
			"doubleSided":true,
			"name":"Material.005",
			"pbrMetallicRoughness":{
				"baseColorFactor":[
					0.0016873759450390935,
					0.21156875789165497,
					0.8007893562316895,
					1
				],
				"metallicFactor":0,
				"roughnessFactor":0.5
			}
		},
		{
			"doubleSided":true,
			"name":"Material.004",
			"pbrMetallicRoughness":{
				"baseColorFactor":[
					0.8001565933227539,
					0,
					0.6491552591323853,
					1
				],
				"metallicFactor":0,
				"roughnessFactor":0.5
			}
		}
	],
	"meshes":[
		{
			"name":"Mesh_8",
			"primitives":[
				{
					"attributes":{
						"POSITION":0,
						"NORMAL":1,
						"TEXCOORD_0":2
					},
					"indices":3,
					"material":0
				}
			]
		},
		{
			"name":"Mesh_11",
			"primitives":[
				{
					"attributes":{
						"POSITION":4,
						"NORMAL":5,
						"TEXCOORD_0":6
					},
					"indices":7,
					"material":1
				}
			]
		},
		{
			"name":"Mesh_1",
			"primitives":[
				{
					"attributes":{
						"POSITION":8,
						"NORMAL":9,
						"TEXCOORD_0":10
					},
					"indices":11
				}
			]
		},
		{
			"name":"Mesh_0",
			"primitives":[
				{
					"attributes":{
						"POSITION":12,
						"NORMAL":13,
						"TEXCOORD_0":14
					},
					"indices":15,
					"material":2
				}
			]
		},
		{
			"name":"Mesh_3",
			"primitives":[
				{
					"attributes":{
						"POSITION":16,
						"NORMAL":17,
						"TEXCOORD_0":18
					},
					"indices":19
				}
			]
		},
		{
			"name":"Mesh_2",
			"primitives":[
				{
					"attributes":{
						"POSITION":20,
						"NORMAL":21,
						"TEXCOORD_0":22
					},
					"indices":23,
					"material":3
				}
			]
		},
		{
			"name":"Mesh_5",
			"primitives":[
				{
					"attributes":{
						"POSITION":24,
						"NORMAL":25,
						"TEXCOORD_0":26
					},
					"indices":27
				}
			]
		},
		{
			"name":"Mesh_4",
			"primitives":[
				{
					"attributes":{
						"POSITION":28,
						"NORMAL":29,
						"TEXCOORD_0":30
					},
					"indices":15,
					"material":4
				}
			]
		},
		{
			"name":"Mesh_6",
			"primitives":[
				{
					"attributes":{
						"POSITION":31,
						"NORMAL":32,
						"TEXCOORD_0":33
					},
					"indices":34,
					"material":5
				}
			]
		},
		{
			"name":"Mesh_7",
			"primitives":[
				{
					"attributes":{
						"POSITION":35,
						"NORMAL":36,
						"TEXCOORD_0":37
					},
					"indices":38,
					"material":6
				}
			]
		},
		{
			"name":"Sphere",
			"primitives":[
				{
					"attributes":{
						"POSITION":39,
						"NORMAL":40,
						"TEXCOORD_0":41
					},
					"indices":42,
					"material":7
				}
			]
		},
		{
			"name":"Sphere.001",
			"primitives":[
				{
					"attributes":{
						"POSITION":43,
						"NORMAL":44,
						"TEXCOORD_0":45
					},
					"indices":42,
					"material":8
				}
			]
		}
	],
	"accessors":[
		{
			"bufferView":0,
			"componentType":5126,
			"count":3231,
			"max":[
				63.21076202392578,
				6.909090995788574,
				1
			],
			"min":[
				-63.109554290771484,
				-6.909090995788574,
				0
			],
			"type":"VEC3"
		},
		{
			"bufferView":1,
			"componentType":5126,
			"count":3231,
			"type":"VEC3"
		},
		{
			"bufferView":2,
			"componentType":5126,
			"count":3231,
			"type":"VEC2"
		},
		{
			"bufferView":3,
			"componentType":5123,
			"count":7812,
			"type":"SCALAR"
		},
		{
			"bufferView":4,
			"componentType":5126,
			"count":316,
			"max":[
				250,
				150,
				10
			],
			"min":[
				-250,
				-150,
				0
			],
			"type":"VEC3"
		},
		{
			"bufferView":5,
			"componentType":5126,
			"count":316,
			"type":"VEC3"
		},
		{
			"bufferView":6,
			"componentType":5126,
			"count":316,
			"type":"VEC2"
		},
		{
			"bufferView":7,
			"componentType":5123,
			"count":924,
			"type":"SCALAR"
		},
		{
			"bufferView":8,
			"componentType":5126,
			"count":2278,
			"max":[
				16.252439498901367,
				5.71484375,
				1
			],
			"min":[
				-16.16357421875,
				-4.921875476837158,
				0
			],
			"type":"VEC3"
		},
		{
			"bufferView":9,
			"componentType":5126,
			"count":2278,
			"type":"VEC3"
		},
		{
			"bufferView":10,
			"componentType":5126,
			"count":2278,
			"type":"VEC2"
		},
		{
			"bufferView":11,
			"componentType":5123,
			"count":6168,
			"type":"SCALAR"
		},
		{
			"bufferView":12,
			"componentType":5126,
			"count":10342,
			"max":[
				51.7613639831543,
				5.818181991577148,
				1
			],
			"min":[
				-51.90340805053711,
				-9.090909004211426,
				0
			],
			"type":"VEC3"
		},
		{
			"bufferView":13,
			"componentType":5126,
			"count":10342,
			"type":"VEC3"
		},
		{
			"bufferView":14,
			"componentType":5126,
			"count":10342,
			"type":"VEC2"
		},
		{
			"bufferView":15,
			"componentType":5123,
			"count":29640,
			"type":"SCALAR"
		},
		{
			"bufferView":16,
			"componentType":5126,
			"count":2875,
			"max":[
				19.328611373901367,
				5.71484375,
				1
			],
			"min":[
				-18.67919921875,
				-4.921875476837158,
				0
			],
			"type":"VEC3"
		},
		{
			"bufferView":17,
			"componentType":5126,
			"count":2875,
			"type":"VEC3"
		},
		{
			"bufferView":18,
			"componentType":5126,
			"count":2875,
			"type":"VEC2"
		},
		{
			"bufferView":19,
			"componentType":5123,
			"count":8136,
			"type":"SCALAR"
		},
		{
			"bufferView":20,
			"componentType":5126,
			"count":10704,
			"max":[
				50.275569915771484,
				5.977272987365723,
				1
			],
			"min":[
				-50.00284194946289,
				-6.073864459991455,
				0
			],
			"type":"VEC3"
		},
		{
			"bufferView":21,
			"componentType":5126,
			"count":10704,
			"type":"VEC3"
		},
		{
			"bufferView":22,
			"componentType":5126,
			"count":10704,
			"type":"VEC2"
		},
		{
			"bufferView":23,
			"componentType":5123,
			"count":31608,
			"type":"SCALAR"
		},
		{
			"bufferView":24,
			"componentType":5126,
			"count":5542,
			"max":[
				33.60888671875,
				5.71484375,
				1
			],
			"min":[
				-33.07568359375,
				-4.921875476837158,
				0
			],
			"type":"VEC3"
		},
		{
			"bufferView":25,
			"componentType":5126,
			"count":5542,
			"type":"VEC3"
		},
		{
			"bufferView":26,
			"componentType":5126,
			"count":5542,
			"type":"VEC2"
		},
		{
			"bufferView":27,
			"componentType":5123,
			"count":15804,
			"type":"SCALAR"
		},
		{
			"bufferView":28,
			"componentType":5126,
			"count":10342,
			"max":[
				51.7613639831543,
				5.818181991577148,
				1
			],
			"min":[
				-51.90340805053711,
				-9.090909004211426,
				0
			],
			"type":"VEC3"
		},
		{
			"bufferView":29,
			"componentType":5126,
			"count":10342,
			"type":"VEC3"
		},
		{
			"bufferView":30,
			"componentType":5126,
			"count":10342,
			"type":"VEC2"
		},
		{
			"bufferView":31,
			"componentType":5126,
			"count":164,
			"max":[
				67.94631958007812,
				11.789900779724121,
				0
			],
			"min":[
				-67.94631958007812,
				-11.789900779724121,
				0
			],
			"type":"VEC3"
		},
		{
			"bufferView":32,
			"componentType":5126,
			"count":164,
			"type":"VEC3"
		},
		{
			"bufferView":33,
			"componentType":5126,
			"count":164,
			"type":"VEC2"
		},
		{
			"bufferView":34,
			"componentType":5123,
			"count":486,
			"type":"SCALAR"
		},
		{
			"bufferView":35,
			"componentType":5126,
			"count":16086,
			"max":[
				56.72301483154297,
				4.713068008422852,
				1
			],
			"min":[
				-56.98295593261719,
				-6.9545464515686035,
				0
			],
			"type":"VEC3"
		},
		{
			"bufferView":36,
			"componentType":5126,
			"count":16086,
			"type":"VEC3"
		},
		{
			"bufferView":37,
			"componentType":5126,
			"count":16086,
			"type":"VEC2"
		},
		{
			"bufferView":38,
			"componentType":5123,
			"count":46416,
			"type":"SCALAR"
		},
		{
			"bufferView":39,
			"componentType":5126,
			"count":559,
			"max":[
				0.9999997019767761,
				1,
				0.9999993443489075
			],
			"min":[
				-0.9999990463256836,
				-1,
				-1
			],
			"type":"VEC3"
		},
		{
			"bufferView":40,
			"componentType":5126,
			"count":559,
			"type":"VEC3"
		},
		{
			"bufferView":41,
			"componentType":5126,
			"count":559,
			"type":"VEC2"
		},
		{
			"bufferView":42,
			"componentType":5123,
			"count":2880,
			"type":"SCALAR"
		},
		{
			"bufferView":43,
			"componentType":5126,
			"count":559,
			"max":[
				0.9999997019767761,
				1,
				0.9999993443489075
			],
			"min":[
				-0.9999990463256836,
				-1,
				-1
			],
			"type":"VEC3"
		},
		{
			"bufferView":44,
			"componentType":5126,
			"count":559,
			"type":"VEC3"
		},
		{
			"bufferView":45,
			"componentType":5126,
			"count":559,
			"type":"VEC2"
		}
	],
	"bufferViews":[
		{
			"buffer":0,
			"byteLength":38772,
			"byteOffset":0,
			"target":34962
		},
		{
			"buffer":0,
			"byteLength":38772,
			"byteOffset":38772,
			"target":34962
		},
		{
			"buffer":0,
			"byteLength":25848,
			"byteOffset":77544,
			"target":34962
		},
		{
			"buffer":0,
			"byteLength":15624,
			"byteOffset":103392,
			"target":34963
		},
		{
			"buffer":0,
			"byteLength":3792,
			"byteOffset":119016,
			"target":34962
		},
		{
			"buffer":0,
			"byteLength":3792,
			"byteOffset":122808,
			"target":34962
		},
		{
			"buffer":0,
			"byteLength":2528,
			"byteOffset":126600,
			"target":34962
		},
		{
			"buffer":0,
			"byteLength":1848,
			"byteOffset":129128,
			"target":34963
		},
		{
			"buffer":0,
			"byteLength":27336,
			"byteOffset":130976,
			"target":34962
		},
		{
			"buffer":0,
			"byteLength":27336,
			"byteOffset":158312,
			"target":34962
		},
		{
			"buffer":0,
			"byteLength":18224,
			"byteOffset":185648,
			"target":34962
		},
		{
			"buffer":0,
			"byteLength":12336,
			"byteOffset":203872,
			"target":34963
		},
		{
			"buffer":0,
			"byteLength":124104,
			"byteOffset":216208,
			"target":34962
		},
		{
			"buffer":0,
			"byteLength":124104,
			"byteOffset":340312,
			"target":34962
		},
		{
			"buffer":0,
			"byteLength":82736,
			"byteOffset":464416,
			"target":34962
		},
		{
			"buffer":0,
			"byteLength":59280,
			"byteOffset":547152,
			"target":34963
		},
		{
			"buffer":0,
			"byteLength":34500,
			"byteOffset":606432,
			"target":34962
		},
		{
			"buffer":0,
			"byteLength":34500,
			"byteOffset":640932,
			"target":34962
		},
		{
			"buffer":0,
			"byteLength":23000,
			"byteOffset":675432,
			"target":34962
		},
		{
			"buffer":0,
			"byteLength":16272,
			"byteOffset":698432,
			"target":34963
		},
		{
			"buffer":0,
			"byteLength":128448,
			"byteOffset":714704,
			"target":34962
		},
		{
			"buffer":0,
			"byteLength":128448,
			"byteOffset":843152,
			"target":34962
		},
		{
			"buffer":0,
			"byteLength":85632,
			"byteOffset":971600,
			"target":34962
		},
		{
			"buffer":0,
			"byteLength":63216,
			"byteOffset":1057232,
			"target":34963
		},
		{
			"buffer":0,
			"byteLength":66504,
			"byteOffset":1120448,
			"target":34962
		},
		{
			"buffer":0,
			"byteLength":66504,
			"byteOffset":1186952,
			"target":34962
		},
		{
			"buffer":0,
			"byteLength":44336,
			"byteOffset":1253456,
			"target":34962
		},
		{
			"buffer":0,
			"byteLength":31608,
			"byteOffset":1297792,
			"target":34963
		},
		{
			"buffer":0,
			"byteLength":124104,
			"byteOffset":1329400,
			"target":34962
		},
		{
			"buffer":0,
			"byteLength":124104,
			"byteOffset":1453504,
			"target":34962
		},
		{
			"buffer":0,
			"byteLength":82736,
			"byteOffset":1577608,
			"target":34962
		},
		{
			"buffer":0,
			"byteLength":1968,
			"byteOffset":1660344,
			"target":34962
		},
		{
			"buffer":0,
			"byteLength":1968,
			"byteOffset":1662312,
			"target":34962
		},
		{
			"buffer":0,
			"byteLength":1312,
			"byteOffset":1664280,
			"target":34962
		},
		{
			"buffer":0,
			"byteLength":972,
			"byteOffset":1665592,
			"target":34963
		},
		{
			"buffer":0,
			"byteLength":193032,
			"byteOffset":1666564,
			"target":34962
		},
		{
			"buffer":0,
			"byteLength":193032,
			"byteOffset":1859596,
			"target":34962
		},
		{
			"buffer":0,
			"byteLength":128688,
			"byteOffset":2052628,
			"target":34962
		},
		{
			"buffer":0,
			"byteLength":92832,
			"byteOffset":2181316,
			"target":34963
		},
		{
			"buffer":0,
			"byteLength":6708,
			"byteOffset":2274148,
			"target":34962
		},
		{
			"buffer":0,
			"byteLength":6708,
			"byteOffset":2280856,
			"target":34962
		},
		{
			"buffer":0,
			"byteLength":4472,
			"byteOffset":2287564,
			"target":34962
		},
		{
			"buffer":0,
			"byteLength":5760,
			"byteOffset":2292036,
			"target":34963
		},
		{
			"buffer":0,
			"byteLength":6708,
			"byteOffset":2297796,
			"target":34962
		},
		{
			"buffer":0,
			"byteLength":6708,
			"byteOffset":2304504,
			"target":34962
		},
		{
			"buffer":0,
			"byteLength":4472,
			"byteOffset":2311212,
			"target":34962
		}
	],
	"buffers":[
		{
			"byteLength":2315684,
			"uri":"b_card.bin"
		}
	]
}
