<svg width="16" height="16" viewBox="0 0 16 16" fill="none" xmlns="http://www.w3.org/2000/svg">
<path d="M6.70072 3.25208C7.27796 2.25153 8.72203 2.25153 9.29928 3.25208L12.9221 9.53164C13.7074 10.8927 12.0423 12.5383 10.6048 11.9037C9.58209 11.4523 8.6349 11.1333 8 11.1333C7.3651 11.1333 6.41791 11.4523 5.39522 11.9037C3.95766 12.5383 2.29265 10.8927 3.0779 9.53164L6.70072 3.25208Z" fill="white"/>
<path d="M7.50641 5.84615C7.72691 5.46815 8.27309 5.46815 8.49359 5.84615L10.2547 8.86518C10.5179 9.31646 10.0835 9.8681 9.5773 9.73888C8.98848 9.58858 8.36021 9.45385 8 9.45385C7.63979 9.45385 7.01152 9.58858 6.4227 9.73888C5.91649 9.8681 5.48207 9.31646 5.74531 8.86518L7.50641 5.84615Z" fill="#1B1B1B"/>
<g filter="url(#filter0_d_1684_5725)">
<circle cx="8" cy="8" r="1" fill="url(#paint0_linear_1684_5725)"/>
<circle cx="8" cy="8" r="0.90625" stroke="url(#paint1_linear_1684_5725)" stroke-width="0.1875"/>
</g>
<defs>
<filter id="filter0_d_1684_5725" x="6" y="6" width="4" height="4" filterUnits="userSpaceOnUse" color-interpolation-filters="sRGB">
<feFlood flood-opacity="0" result="BackgroundImageFix"/>
<feColorMatrix in="SourceAlpha" type="matrix" values="0 0 0 0 0 0 0 0 0 0 0 0 0 0 0 0 0 0 127 0" result="hardAlpha"/>
<feMorphology radius="1" operator="dilate" in="SourceAlpha" result="effect1_dropShadow_1684_5725"/>
<feOffset/>
<feComposite in2="hardAlpha" operator="out"/>
<feColorMatrix type="matrix" values="0 0 0 0 0.403922 0 0 0 0 0.164706 0 0 0 0 0.952941 0 0 0 0.5 0"/>
<feBlend mode="normal" in2="BackgroundImageFix" result="effect1_dropShadow_1684_5725"/>
<feBlend mode="normal" in="SourceGraphic" in2="effect1_dropShadow_1684_5725" result="shape"/>
</filter>
<linearGradient id="paint0_linear_1684_5725" x1="8" y1="7" x2="8" y2="9" gradientUnits="userSpaceOnUse">
<stop stop-color="#B00DFD"/>
<stop offset="0.5" stop-color="#6829F3"/>
<stop offset="1" stop-color="#1B48E8"/>
</linearGradient>
<linearGradient id="paint1_linear_1684_5725" x1="8" y1="7" x2="8" y2="9" gradientUnits="userSpaceOnUse">
<stop stop-color="#343EEC"/>
<stop offset="1" stop-color="#9F14FB"/>
</linearGradient>
</defs>
</svg>
