<svg width="561" height="360" viewBox="0 0 561 360" fill="none" xmlns="http://www.w3.org/2000/svg">
<g filter="url(#filter0_bd_1629_5231)">
<g clip-path="url(#clip0_1629_5231)">
<rect x="30" y="14" width="501" height="300" rx="32" fill="white" fill-opacity="0.1" shape-rendering="crispEdges"/>
<g filter="url(#filter1_f_1629_5231)">
<path d="M50.7731 46.1589C49.5117 32.1131 60.5746 20.0122 74.6769 20.0122L345.205 20.0122C350.578 20.0122 355.796 21.8155 360.023 25.1332L425.236 76.3193C431.033 80.869 434.418 87.8294 434.418 95.1983L434.418 190.631C434.418 200.498 428.378 209.36 419.194 212.969L331.325 247.492C327.674 248.926 323.727 249.444 319.83 249L85.8295 222.321C74.5138 221.03 65.6631 211.965 64.6444 200.622L50.7731 46.1589Z" fill="url(#paint0_linear_1629_5231)"/>
</g>
<path d="M63.7699 77V56.6364H68.0753V65.0384H76.8153V56.6364H81.1108V77H76.8153V68.5881H68.0753V77H63.7699ZM91.4815 77.2983C89.937 77.2983 88.6013 76.9702 87.4744 76.3139C86.3542 75.651 85.4891 74.7296 84.8793 73.5497C84.2694 72.3632 83.9645 70.9877 83.9645 69.4233C83.9645 67.8456 84.2694 66.4669 84.8793 65.2869C85.4891 64.1004 86.3542 63.179 87.4744 62.5227C88.6013 61.8598 89.937 61.5284 91.4815 61.5284C93.026 61.5284 94.3584 61.8598 95.4787 62.5227C96.6056 63.179 97.474 64.1004 98.0838 65.2869C98.6937 66.4669 98.9986 67.8456 98.9986 69.4233C98.9986 70.9877 98.6937 72.3632 98.0838 73.5497C97.474 74.7296 96.6056 75.651 95.4787 76.3139C94.3584 76.9702 93.026 77.2983 91.4815 77.2983ZM91.5014 74.017C92.2041 74.017 92.7907 73.8182 93.2614 73.4205C93.732 73.0161 94.0866 72.4659 94.3253 71.7699C94.5705 71.0739 94.6932 70.2817 94.6932 69.3935C94.6932 68.5052 94.5705 67.7131 94.3253 67.017C94.0866 66.321 93.732 65.7708 93.2614 65.3665C92.7907 64.9621 92.2041 64.7599 91.5014 64.7599C90.7921 64.7599 90.1955 64.9621 89.7116 65.3665C89.2344 65.7708 88.8731 66.321 88.6278 67.017C88.3892 67.7131 88.2699 68.5052 88.2699 69.3935C88.2699 70.2817 88.3892 71.0739 88.6278 71.7699C88.8731 72.4659 89.2344 73.0161 89.7116 73.4205C90.1955 73.8182 90.7921 74.017 91.5014 74.017ZM106.108 77.2884C105.134 77.2884 104.265 77.1193 103.503 76.7812C102.741 76.4366 102.137 75.9295 101.693 75.2599C101.256 74.5838 101.037 73.742 101.037 72.7344C101.037 71.8859 101.193 71.1733 101.504 70.5966C101.816 70.0199 102.24 69.5559 102.777 69.2045C103.314 68.8532 103.924 68.5881 104.607 68.4091C105.296 68.2301 106.018 68.1042 106.774 68.0312C107.662 67.9384 108.378 67.8523 108.922 67.7727C109.465 67.6866 109.86 67.5606 110.105 67.3949C110.35 67.2292 110.473 66.9839 110.473 66.6591V66.5994C110.473 65.9697 110.274 65.4825 109.876 65.1378C109.485 64.7931 108.929 64.6207 108.206 64.6207C107.444 64.6207 106.837 64.7898 106.386 65.1278C105.936 65.4593 105.637 65.8769 105.491 66.3807L101.574 66.0625C101.773 65.1345 102.164 64.3324 102.747 63.6562C103.33 62.9735 104.083 62.4498 105.004 62.0852C105.932 61.714 107.006 61.5284 108.226 61.5284C109.074 61.5284 109.886 61.6278 110.662 61.8267C111.444 62.0256 112.137 62.3338 112.74 62.7514C113.35 63.169 113.83 63.706 114.182 64.3622C114.533 65.0118 114.709 65.7907 114.709 66.6989V77H110.692V74.8821H110.572C110.327 75.3594 109.999 75.7803 109.588 76.1449C109.177 76.5028 108.683 76.7846 108.107 76.9901C107.53 77.1889 106.864 77.2884 106.108 77.2884ZM107.321 74.3651C107.944 74.3651 108.494 74.2424 108.972 73.9972C109.449 73.7453 109.823 73.4072 110.095 72.983C110.367 72.5587 110.503 72.0781 110.503 71.5412V69.9205C110.37 70.0066 110.188 70.0862 109.956 70.1591C109.731 70.2254 109.475 70.2884 109.19 70.348C108.905 70.401 108.62 70.4508 108.335 70.4972C108.05 70.5369 107.792 70.5734 107.56 70.6065C107.063 70.6795 106.628 70.7955 106.257 70.9545C105.886 71.1136 105.598 71.3291 105.392 71.6009C105.187 71.866 105.084 72.1974 105.084 72.5952C105.084 73.1719 105.293 73.6127 105.71 73.9176C106.134 74.2159 106.671 74.3651 107.321 74.3651ZM122.231 68.1705V77H117.995V61.7273H122.032V64.4219H122.211C122.549 63.5336 123.116 62.831 123.911 62.3139C124.707 61.7902 125.671 61.5284 126.805 61.5284C127.865 61.5284 128.79 61.7604 129.579 62.2244C130.368 62.6884 130.981 63.3513 131.418 64.2131C131.856 65.0682 132.075 66.089 132.075 67.2756V77H127.839V68.0312C127.845 67.0966 127.607 66.3674 127.123 65.8438C126.639 65.3134 125.973 65.0483 125.124 65.0483C124.554 65.0483 124.05 65.1709 123.613 65.4162C123.182 65.6615 122.844 66.0194 122.599 66.4901C122.36 66.9541 122.237 67.5142 122.231 68.1705ZM142.294 83.0455C140.922 83.0455 139.745 82.8565 138.764 82.4787C137.789 82.1075 137.014 81.6004 136.437 80.9574C135.86 80.3144 135.486 79.5919 135.314 78.7898L139.231 78.2628C139.35 78.5677 139.539 78.8527 139.798 79.1179C140.056 79.383 140.398 79.5952 140.822 79.7543C141.253 79.92 141.777 80.0028 142.393 80.0028C143.315 80.0028 144.074 79.7775 144.67 79.3267C145.273 78.8826 145.575 78.1368 145.575 77.0895V74.2955H145.396C145.21 74.7197 144.932 75.1207 144.561 75.4986C144.19 75.8764 143.712 76.1847 143.129 76.4233C142.546 76.6619 141.85 76.7812 141.041 76.7812C139.894 76.7812 138.85 76.5161 137.909 75.9858C136.974 75.4489 136.228 74.6302 135.672 73.5298C135.121 72.4228 134.846 71.0241 134.846 69.3338C134.846 67.6037 135.128 66.1586 135.691 64.9986C136.255 63.8385 137.004 62.9702 137.939 62.3935C138.88 61.8168 139.911 61.5284 141.031 61.5284C141.886 61.5284 142.602 61.6742 143.179 61.9659C143.755 62.2509 144.219 62.6089 144.571 63.0398C144.929 63.464 145.204 63.8816 145.396 64.2926H145.555V61.7273H149.761V77.1491C149.761 78.4484 149.443 79.5355 148.806 80.4105C148.17 81.2855 147.288 81.9418 146.162 82.3793C145.041 82.8234 143.752 83.0455 142.294 83.0455ZM142.383 73.5994C143.066 73.5994 143.643 73.4304 144.113 73.0923C144.591 72.7476 144.955 72.2571 145.207 71.6207C145.466 70.9777 145.595 70.2088 145.595 69.3139C145.595 68.419 145.469 67.6435 145.217 66.9872C144.965 66.3243 144.6 65.8106 144.123 65.446C143.646 65.0814 143.066 64.8991 142.383 64.8991C141.687 64.8991 141.1 65.0881 140.623 65.4659C140.146 65.8371 139.785 66.3542 139.539 67.017C139.294 67.6799 139.172 68.4455 139.172 69.3139C139.172 70.1955 139.294 70.9579 139.539 71.6009C139.791 72.2372 140.153 72.7311 140.623 73.0824C141.1 73.4271 141.687 73.5994 142.383 73.5994ZM166.911 77H159.692V56.6364H166.97C169.018 56.6364 170.782 57.044 172.26 57.8594C173.738 58.6681 174.875 59.8314 175.67 61.3494C176.473 62.8674 176.874 64.6837 176.874 66.7983C176.874 68.9195 176.473 70.7424 175.67 72.267C174.875 73.7917 173.732 74.9616 172.24 75.777C170.755 76.5923 168.979 77 166.911 77ZM163.997 73.3111H166.732C168.004 73.3111 169.075 73.0857 169.943 72.6349C170.818 72.1776 171.474 71.4716 171.912 70.517C172.356 69.5559 172.578 68.3163 172.578 66.7983C172.578 65.2936 172.356 64.0639 171.912 63.1094C171.474 62.1548 170.821 61.4522 169.953 61.0014C169.085 60.5507 168.014 60.3253 166.741 60.3253H163.997V73.3111ZM189.777 70.4972V61.7273H194.013V77H189.946V74.2259H189.787C189.443 75.1207 188.869 75.84 188.067 76.3835C187.272 76.9271 186.301 77.1989 185.154 77.1989C184.133 77.1989 183.235 76.9669 182.459 76.5028C181.684 76.0388 181.077 75.3793 180.64 74.5241C180.209 73.669 179.99 72.6449 179.983 71.4517V61.7273H184.219V70.696C184.226 71.5975 184.468 72.3101 184.945 72.8338C185.422 73.3575 186.062 73.6193 186.864 73.6193C187.374 73.6193 187.852 73.5033 188.296 73.2713C188.74 73.0327 189.098 72.6813 189.37 72.2173C189.648 71.7533 189.784 71.1799 189.777 70.4972ZM204.302 77.2983C202.737 77.2983 201.392 76.9669 200.265 76.304C199.145 75.6345 198.283 74.7064 197.68 73.5199C197.083 72.3333 196.785 70.9678 196.785 69.4233C196.785 67.8589 197.086 66.4867 197.69 65.3068C198.299 64.1203 199.165 63.1955 200.285 62.5327C201.405 61.8632 202.737 61.5284 204.282 61.5284C205.614 61.5284 206.781 61.7704 207.782 62.2543C208.783 62.7382 209.575 63.4176 210.158 64.2926C210.742 65.1676 211.063 66.1951 211.123 67.375H207.126C207.013 66.6127 206.715 65.9995 206.231 65.5355C205.754 65.0649 205.127 64.8295 204.352 64.8295C203.695 64.8295 203.122 65.0085 202.631 65.3665C202.147 65.7178 201.77 66.2315 201.498 66.9077C201.226 67.5838 201.09 68.4025 201.09 69.3636C201.09 70.3381 201.223 71.1667 201.488 71.8494C201.76 72.5322 202.141 73.0526 202.631 73.4105C203.122 73.7685 203.695 73.9474 204.352 73.9474C204.835 73.9474 205.27 73.848 205.654 73.6491C206.045 73.4503 206.367 73.1619 206.619 72.7841C206.877 72.3996 207.046 71.9389 207.126 71.402H211.123C211.057 72.5687 210.738 73.5961 210.168 74.4844C209.605 75.366 208.826 76.0554 207.832 76.5526C206.837 77.0497 205.661 77.2983 204.302 77.2983ZM220.395 77V56.6364H228.548C230.046 56.6364 231.296 56.8584 232.297 57.3026C233.298 57.7467 234.05 58.3632 234.554 59.152C235.058 59.9342 235.31 60.8357 235.31 61.8565C235.31 62.652 235.151 63.3513 234.832 63.9545C234.514 64.5511 234.077 65.0417 233.52 65.4261C232.97 65.804 232.34 66.0724 231.631 66.2315V66.4304C232.406 66.4635 233.132 66.6823 233.808 67.0866C234.491 67.491 235.045 68.0578 235.469 68.7869C235.893 69.5095 236.105 70.3712 236.105 71.3722C236.105 72.4527 235.837 73.4171 235.3 74.2656C234.769 75.1075 233.984 75.7737 232.943 76.2642C231.902 76.7547 230.62 77 229.095 77H220.395ZM224.7 73.4801H228.21C229.41 73.4801 230.285 73.2514 230.835 72.794C231.385 72.33 231.661 71.7135 231.661 70.9446C231.661 70.3812 231.525 69.884 231.253 69.4531C230.981 69.0223 230.593 68.6842 230.089 68.4389C229.592 68.1937 228.999 68.071 228.31 68.071H224.7V73.4801ZM224.7 65.1577H227.892C228.482 65.1577 229.006 65.0549 229.463 64.8494C229.927 64.6373 230.292 64.339 230.557 63.9545C230.829 63.5701 230.964 63.1094 230.964 62.5724C230.964 61.8366 230.703 61.2434 230.179 60.7926C229.662 60.3419 228.926 60.1165 227.972 60.1165H224.7V65.1577ZM243.182 77.2884C242.208 77.2884 241.339 77.1193 240.577 76.7812C239.815 76.4366 239.212 75.9295 238.767 75.2599C238.33 74.5838 238.111 73.742 238.111 72.7344C238.111 71.8859 238.267 71.1733 238.578 70.5966C238.89 70.0199 239.314 69.5559 239.851 69.2045C240.388 68.8532 240.998 68.5881 241.681 68.4091C242.37 68.2301 243.093 68.1042 243.848 68.0312C244.737 67.9384 245.453 67.8523 245.996 67.7727C246.54 67.6866 246.934 67.5606 247.179 67.3949C247.425 67.2292 247.547 66.9839 247.547 66.6591V66.5994C247.547 65.9697 247.348 65.4825 246.951 65.1378C246.56 64.7931 246.003 64.6207 245.28 64.6207C244.518 64.6207 243.911 64.7898 243.461 65.1278C243.01 65.4593 242.712 65.8769 242.566 66.3807L238.648 66.0625C238.847 65.1345 239.238 64.3324 239.821 63.6562C240.405 62.9735 241.157 62.4498 242.078 62.0852C243.007 61.714 244.08 61.5284 245.3 61.5284C246.149 61.5284 246.961 61.6278 247.736 61.8267C248.518 62.0256 249.211 62.3338 249.814 62.7514C250.424 63.169 250.905 63.706 251.256 64.3622C251.607 65.0118 251.783 65.7907 251.783 66.6989V77H247.766V74.8821H247.647C247.401 75.3594 247.073 75.7803 246.662 76.1449C246.251 76.5028 245.757 76.7846 245.181 76.9901C244.604 77.1889 243.938 77.2884 243.182 77.2884ZM244.395 74.3651C245.018 74.3651 245.569 74.2424 246.046 73.9972C246.523 73.7453 246.898 73.4072 247.169 72.983C247.441 72.5587 247.577 72.0781 247.577 71.5412V69.9205C247.444 70.0066 247.262 70.0862 247.03 70.1591C246.805 70.2254 246.55 70.2884 246.265 70.348C245.98 70.401 245.694 70.4508 245.409 70.4972C245.124 70.5369 244.866 70.5734 244.634 70.6065C244.137 70.6795 243.703 70.7955 243.331 70.9545C242.96 71.1136 242.672 71.3291 242.466 71.6009C242.261 71.866 242.158 72.1974 242.158 72.5952C242.158 73.1719 242.367 73.6127 242.784 73.9176C243.209 74.2159 243.746 74.3651 244.395 74.3651ZM261.97 77.2983C260.405 77.2983 259.06 76.9669 257.933 76.304C256.813 75.6345 255.951 74.7064 255.348 73.5199C254.751 72.3333 254.453 70.9678 254.453 69.4233C254.453 67.8589 254.754 66.4867 255.358 65.3068C255.967 64.1203 256.833 63.1955 257.953 62.5327C259.073 61.8632 260.405 61.5284 261.95 61.5284C263.282 61.5284 264.449 61.7704 265.45 62.2543C266.451 62.7382 267.243 63.4176 267.826 64.2926C268.41 65.1676 268.731 66.1951 268.791 67.375H264.794C264.681 66.6127 264.383 65.9995 263.899 65.5355C263.422 65.0649 262.795 64.8295 262.02 64.8295C261.363 64.8295 260.79 65.0085 260.299 65.3665C259.815 65.7178 259.438 66.2315 259.166 66.9077C258.894 67.5838 258.758 68.4025 258.758 69.3636C258.758 70.3381 258.891 71.1667 259.156 71.8494C259.428 72.5322 259.809 73.0526 260.299 73.4105C260.79 73.7685 261.363 73.9474 262.02 73.9474C262.503 73.9474 262.938 73.848 263.322 73.6491C263.713 73.4503 264.035 73.1619 264.287 72.7841C264.545 72.3996 264.714 71.9389 264.794 71.402H268.791C268.725 72.5687 268.406 73.5961 267.836 74.4844C267.273 75.366 266.494 76.0554 265.5 76.5526C264.505 77.0497 263.329 77.2983 261.97 77.2983ZM275.739 68.1705V77H271.503V56.6364H275.619V64.4219H275.798C276.143 63.5204 276.7 62.8144 277.469 62.304C278.238 61.7869 279.202 61.5284 280.362 61.5284C281.423 61.5284 282.348 61.7604 283.136 62.2244C283.932 62.6818 284.548 63.3414 284.986 64.2031C285.43 65.0582 285.649 66.0824 285.642 67.2756V77H281.406V68.0312C281.413 67.09 281.174 66.3575 280.69 65.8338C280.213 65.3101 279.544 65.0483 278.682 65.0483C278.105 65.0483 277.595 65.1709 277.151 65.4162C276.713 65.6615 276.368 66.0194 276.116 66.4901C275.871 66.9541 275.745 67.5142 275.739 68.1705Z" fill="white"/>
<g filter="url(#filter2_b_1629_5231)">
<rect x="62" y="88" width="199" height="20" rx="4" fill="white" fill-opacity="0.1"/>
<path d="M68.3864 90.4602V104.812H67.5341V90.4602H68.3864ZM74.7156 102H73.6076L76.8121 93.2727H77.9031L81.1076 102H79.9996L77.3917 94.6534H77.3235L74.7156 102ZM75.1246 98.5909H79.5906V99.5284H75.1246V98.5909ZM86.967 96.9205L86.0636 97.1761C86.0067 97.0256 85.9229 96.8793 85.8121 96.7372C85.7042 96.5923 85.5565 96.473 85.369 96.3793C85.1815 96.2855 84.9414 96.2386 84.6488 96.2386C84.2482 96.2386 83.9144 96.331 83.6474 96.5156C83.3832 96.6974 83.2511 96.929 83.2511 97.2102C83.2511 97.4602 83.342 97.6577 83.5238 97.8026C83.7056 97.9474 83.9897 98.0682 84.3761 98.1648L85.3477 98.4034C85.9329 98.5455 86.369 98.7628 86.6559 99.0554C86.9428 99.3452 87.0863 99.7187 87.0863 100.176C87.0863 100.551 86.9783 100.886 86.7624 101.182C86.5494 101.477 86.2511 101.71 85.8675 101.881C85.484 102.051 85.038 102.136 84.5295 102.136C83.8619 102.136 83.3093 101.991 82.8718 101.702C82.4343 101.412 82.1573 100.989 82.0408 100.432L82.9954 100.193C83.0863 100.545 83.2582 100.81 83.511 100.986C83.7667 101.162 84.1005 101.25 84.5124 101.25C84.9812 101.25 85.3533 101.151 85.6289 100.952C85.9073 100.75 86.0465 100.509 86.0465 100.227C86.0465 100 85.967 99.8097 85.8079 99.6562C85.6488 99.5 85.4045 99.3835 85.0749 99.3068L83.984 99.0511C83.3846 98.9091 82.9442 98.6889 82.663 98.3906C82.3846 98.0895 82.2454 97.7131 82.2454 97.2614C82.2454 96.892 82.3491 96.5653 82.5565 96.2812C82.7667 95.9972 83.0522 95.7741 83.413 95.6122C83.7766 95.4503 84.1886 95.3693 84.6488 95.3693C85.2965 95.3693 85.805 95.5114 86.1744 95.7955C86.5465 96.0795 86.8107 96.4545 86.967 96.9205ZM88.6001 104.455V95.4545H89.5717V96.4943H89.6911C89.7649 96.3807 89.8672 96.2358 89.9979 96.0597C90.1314 95.8807 90.3217 95.7216 90.5689 95.5824C90.8189 95.4403 91.157 95.3693 91.5831 95.3693C92.1342 95.3693 92.62 95.5071 93.0405 95.7827C93.4609 96.0582 93.7891 96.4489 94.0249 96.9545C94.2607 97.4602 94.3786 98.0568 94.3786 98.7443C94.3786 99.4375 94.2607 100.038 94.0249 100.547C93.7891 101.053 93.4624 101.445 93.0447 101.723C92.6271 101.999 92.1456 102.136 91.6001 102.136C91.1797 102.136 90.843 102.067 90.5902 101.928C90.3374 101.786 90.1428 101.625 90.0064 101.446C89.87 101.264 89.7649 101.114 89.6911 100.994H89.6058V104.455H88.6001ZM89.5888 98.7273C89.5888 99.2216 89.6612 99.6577 89.8061 100.036C89.951 100.411 90.1626 100.705 90.4411 100.918C90.7195 101.128 91.0604 101.233 91.4638 101.233C91.8842 101.233 92.2351 101.122 92.5163 100.901C92.8004 100.676 93.0135 100.375 93.1555 99.9972C93.3004 99.6165 93.3729 99.1932 93.3729 98.7273C93.3729 98.267 93.3018 97.8523 93.1598 97.483C93.0206 97.1108 92.8089 96.8168 92.5249 96.6009C92.2436 96.3821 91.8899 96.2727 91.4638 96.2727C91.0547 96.2727 90.7109 96.3764 90.4325 96.5838C90.1541 96.7884 89.9439 97.0753 89.8018 97.4446C89.6598 97.8111 89.5888 98.2386 89.5888 98.7273ZM95.9126 102V95.4545H96.9183V102H95.9126ZM96.424 94.3636C96.228 94.3636 96.0589 94.2969 95.9169 94.1634C95.7777 94.0298 95.7081 93.8693 95.7081 93.6818C95.7081 93.4943 95.7777 93.3338 95.9169 93.2003C96.0589 93.0668 96.228 93 96.424 93C96.62 93 96.7876 93.0668 96.9268 93.2003C97.0689 93.3338 97.1399 93.4943 97.1399 93.6818C97.1399 93.8693 97.0689 94.0298 96.9268 94.1634C96.7876 94.2969 96.62 94.3636 96.424 94.3636ZM98.7603 102V95.4545H99.7319V96.4432H99.8001C99.9194 96.1193 100.135 95.8565 100.448 95.6548C100.76 95.4531 101.113 95.3523 101.505 95.3523C101.578 95.3523 101.671 95.3537 101.782 95.3565C101.892 95.3594 101.976 95.3636 102.033 95.3693V96.392C101.999 96.3835 101.921 96.3707 101.799 96.3537C101.679 96.3338 101.553 96.3239 101.419 96.3239C101.101 96.3239 100.817 96.3906 100.567 96.5241C100.32 96.6548 100.124 96.8366 99.979 97.0696C99.837 97.2997 99.766 97.5625 99.766 97.858V102H98.7603ZM103.225 102V95.4545H104.231V102H103.225ZM103.737 94.3636C103.54 94.3636 103.371 94.2969 103.229 94.1634C103.09 94.0298 103.021 93.8693 103.021 93.6818C103.021 93.4943 103.09 93.3338 103.229 93.2003C103.371 93.0668 103.54 93 103.737 93C103.933 93 104.1 93.0668 104.239 93.2003C104.381 93.3338 104.452 93.4943 104.452 93.6818C104.452 93.8693 104.381 94.0298 104.239 94.1634C104.1 94.2969 103.933 94.3636 103.737 94.3636ZM107.078 98.0625V102H106.073V95.4545H107.044V96.4773H107.13C107.283 96.1449 107.516 95.8778 107.828 95.6761C108.141 95.4716 108.544 95.3693 109.039 95.3693C109.482 95.3693 109.87 95.4602 110.202 95.642C110.534 95.821 110.793 96.0938 110.978 96.4602C111.162 96.8239 111.255 97.2841 111.255 97.8409V102H110.249V97.9091C110.249 97.3949 110.115 96.9943 109.848 96.7074C109.581 96.4176 109.215 96.2727 108.749 96.2727C108.428 96.2727 108.141 96.3423 107.888 96.4815C107.638 96.6207 107.441 96.8239 107.296 97.0909C107.151 97.358 107.078 97.6818 107.078 98.0625ZM115.734 104.591C115.249 104.591 114.831 104.528 114.482 104.403C114.132 104.281 113.841 104.119 113.608 103.918C113.378 103.719 113.195 103.506 113.058 103.278L113.859 102.716C113.95 102.835 114.065 102.972 114.205 103.125C114.344 103.281 114.534 103.416 114.776 103.53C115.02 103.646 115.339 103.705 115.734 103.705C116.263 103.705 116.699 103.577 117.043 103.321C117.386 103.065 117.558 102.665 117.558 102.119V100.79H117.473C117.399 100.909 117.294 101.057 117.158 101.233C117.024 101.406 116.831 101.561 116.578 101.697C116.328 101.831 115.99 101.898 115.564 101.898C115.036 101.898 114.561 101.773 114.141 101.523C113.723 101.273 113.392 100.909 113.148 100.432C112.906 99.9545 112.786 99.375 112.786 98.6932C112.786 98.0227 112.903 97.4389 113.139 96.9418C113.375 96.4418 113.703 96.0554 114.124 95.7827C114.544 95.5071 115.03 95.3693 115.581 95.3693C116.007 95.3693 116.345 95.4403 116.595 95.5824C116.848 95.7216 117.041 95.8807 117.175 96.0597C117.311 96.2358 117.416 96.3807 117.49 96.4943H117.592V95.4545H118.564V102.188C118.564 102.75 118.436 103.207 118.18 103.56C117.928 103.915 117.587 104.175 117.158 104.339C116.732 104.507 116.257 104.591 115.734 104.591ZM115.7 100.994C116.104 100.994 116.445 100.902 116.723 100.717C117.001 100.533 117.213 100.267 117.358 99.9205C117.503 99.5739 117.575 99.1591 117.575 98.6761C117.575 98.2045 117.504 97.7884 117.362 97.4276C117.22 97.0668 117.01 96.7841 116.732 96.5795C116.453 96.375 116.109 96.2727 115.7 96.2727C115.274 96.2727 114.919 96.3807 114.635 96.5966C114.354 96.8125 114.142 97.1023 114 97.4659C113.861 97.8295 113.791 98.233 113.791 98.6761C113.791 99.1307 113.862 99.5327 114.004 99.8821C114.149 100.229 114.362 100.501 114.643 100.7C114.928 100.896 115.28 100.994 115.7 100.994ZM126.251 102.136C125.706 102.136 125.224 101.999 124.807 101.723C124.389 101.445 124.063 101.053 123.827 100.547C123.591 100.038 123.473 99.4375 123.473 98.7443C123.473 98.0568 123.591 97.4602 123.827 96.9545C124.063 96.4489 124.391 96.0582 124.811 95.7827C125.232 95.5071 125.717 95.3693 126.268 95.3693C126.695 95.3693 127.031 95.4403 127.278 95.5824C127.528 95.7216 127.719 95.8807 127.849 96.0597C127.983 96.2358 128.087 96.3807 128.161 96.4943H128.246V93.2727H129.251V102H128.28V100.994H128.161C128.087 101.114 127.982 101.264 127.845 101.446C127.709 101.625 127.514 101.786 127.261 101.928C127.009 102.067 126.672 102.136 126.251 102.136ZM126.388 101.233C126.791 101.233 127.132 101.128 127.411 100.918C127.689 100.705 127.901 100.411 128.045 100.036C128.19 99.6577 128.263 99.2216 128.263 98.7273C128.263 98.2386 128.192 97.8111 128.05 97.4446C127.908 97.0753 127.697 96.7884 127.419 96.5838C127.141 96.3764 126.797 96.2727 126.388 96.2727C125.962 96.2727 125.607 96.3821 125.322 96.6009C125.041 96.8168 124.83 97.1108 124.688 97.483C124.548 97.8523 124.479 98.267 124.479 98.7273C124.479 99.1932 124.55 99.6165 124.692 99.9972C124.837 100.375 125.05 100.676 125.331 100.901C125.615 101.122 125.967 101.233 126.388 101.233ZM133.977 102.136C133.347 102.136 132.803 101.997 132.345 101.719C131.891 101.438 131.54 101.045 131.293 100.543C131.048 100.037 130.926 99.4489 130.926 98.7784C130.926 98.108 131.048 97.517 131.293 97.0057C131.54 96.4915 131.884 96.0909 132.324 95.804C132.767 95.5142 133.284 95.3693 133.875 95.3693C134.216 95.3693 134.553 95.4261 134.885 95.5398C135.217 95.6534 135.52 95.8381 135.793 96.0938C136.065 96.3466 136.283 96.6818 136.445 97.0994C136.607 97.517 136.688 98.0312 136.688 98.642V99.0682H131.642V98.1989H135.665C135.665 97.8295 135.591 97.5 135.443 97.2102C135.298 96.9205 135.091 96.6918 134.821 96.5241C134.554 96.3565 134.239 96.2727 133.875 96.2727C133.474 96.2727 133.128 96.3722 132.835 96.571C132.545 96.767 132.322 97.0227 132.166 97.3381C132.01 97.6534 131.932 97.9915 131.932 98.3523V98.9318C131.932 99.4261 132.017 99.8452 132.188 100.189C132.361 100.53 132.601 100.79 132.908 100.969C133.214 101.145 133.571 101.233 133.977 101.233C134.241 101.233 134.48 101.196 134.693 101.122C134.909 101.045 135.095 100.932 135.251 100.781C135.408 100.628 135.528 100.437 135.614 100.21L136.585 100.483C136.483 100.812 136.311 101.102 136.07 101.352C135.828 101.599 135.53 101.793 135.175 101.932C134.82 102.068 134.42 102.136 133.977 102.136ZM143.37 95.4545L140.95 102H139.927L137.507 95.4545H138.598L140.404 100.67H140.473L142.279 95.4545H143.37ZM147.208 102.136C146.577 102.136 146.033 101.997 145.576 101.719C145.121 101.438 144.77 101.045 144.523 100.543C144.279 100.037 144.157 99.4489 144.157 98.7784C144.157 98.108 144.279 97.517 144.523 97.0057C144.77 96.4915 145.114 96.0909 145.554 95.804C145.998 95.5142 146.515 95.3693 147.105 95.3693C147.446 95.3693 147.783 95.4261 148.115 95.5398C148.448 95.6534 148.75 95.8381 149.023 96.0938C149.296 96.3466 149.513 96.6818 149.675 97.0994C149.837 97.517 149.918 98.0312 149.918 98.642V99.0682H144.873V98.1989H148.895C148.895 97.8295 148.821 97.5 148.674 97.2102C148.529 96.9205 148.321 96.6918 148.051 96.5241C147.784 96.3565 147.469 96.2727 147.105 96.2727C146.705 96.2727 146.358 96.3722 146.066 96.571C145.776 96.767 145.553 97.0227 145.397 97.3381C145.24 97.6534 145.162 97.9915 145.162 98.3523V98.9318C145.162 99.4261 145.248 99.8452 145.418 100.189C145.591 100.53 145.831 100.79 146.138 100.969C146.445 101.145 146.801 101.233 147.208 101.233C147.472 101.233 147.711 101.196 147.924 101.122C148.14 101.045 148.326 100.932 148.482 100.781C148.638 100.628 148.759 100.437 148.844 100.21L149.816 100.483C149.713 100.812 149.542 101.102 149.3 101.352C149.059 101.599 148.76 101.793 148.405 101.932C148.05 102.068 147.651 102.136 147.208 102.136ZM152.453 93.2727V102H151.448V93.2727H152.453ZM156.955 102.136C156.364 102.136 155.845 101.996 155.399 101.714C154.956 101.433 154.609 101.04 154.359 100.534C154.112 100.028 153.989 99.4375 153.989 98.7614C153.989 98.0795 154.112 97.4844 154.359 96.9759C154.609 96.4673 154.956 96.0724 155.399 95.7912C155.845 95.5099 156.364 95.3693 156.955 95.3693C157.545 95.3693 158.063 95.5099 158.506 95.7912C158.952 96.0724 159.298 96.4673 159.545 96.9759C159.795 97.4844 159.92 98.0795 159.92 98.7614C159.92 99.4375 159.795 100.028 159.545 100.534C159.298 101.04 158.952 101.433 158.506 101.714C158.063 101.996 157.545 102.136 156.955 102.136ZM156.955 101.233C157.403 101.233 157.773 101.118 158.062 100.888C158.352 100.658 158.567 100.355 158.706 99.9801C158.845 99.6051 158.915 99.1989 158.915 98.7614C158.915 98.3239 158.845 97.9162 158.706 97.5384C158.567 97.1605 158.352 96.8551 158.062 96.6222C157.773 96.3892 157.403 96.2727 156.955 96.2727C156.506 96.2727 156.136 96.3892 155.847 96.6222C155.557 96.8551 155.342 97.1605 155.203 97.5384C155.064 97.9162 154.994 98.3239 154.994 98.7614C154.994 99.1989 155.064 99.6051 155.203 99.9801C155.342 100.355 155.557 100.658 155.847 100.888C156.136 101.118 156.506 101.233 156.955 101.233ZM161.456 104.455V95.4545H162.427V96.4943H162.547C162.62 96.3807 162.723 96.2358 162.853 96.0597C162.987 95.8807 163.177 95.7216 163.424 95.5824C163.674 95.4403 164.012 95.3693 164.439 95.3693C164.99 95.3693 165.475 95.5071 165.896 95.7827C166.316 96.0582 166.645 96.4489 166.88 96.9545C167.116 97.4602 167.234 98.0568 167.234 98.7443C167.234 99.4375 167.116 100.038 166.88 100.547C166.645 101.053 166.318 101.445 165.9 101.723C165.483 101.999 165.001 102.136 164.456 102.136C164.035 102.136 163.699 102.067 163.446 101.928C163.193 101.786 162.998 101.625 162.862 101.446C162.725 101.264 162.62 101.114 162.547 100.994H162.461V104.455H161.456ZM162.444 98.7273C162.444 99.2216 162.517 99.6577 162.662 100.036C162.806 100.411 163.018 100.705 163.297 100.918C163.575 101.128 163.916 101.233 164.319 101.233C164.74 101.233 165.091 101.122 165.372 100.901C165.656 100.676 165.869 100.375 166.011 99.9972C166.156 99.6165 166.228 99.1932 166.228 98.7273C166.228 98.267 166.157 97.8523 166.015 97.483C165.876 97.1108 165.664 96.8168 165.38 96.6009C165.099 96.3821 164.745 96.2727 164.319 96.2727C163.91 96.2727 163.566 96.3764 163.288 96.5838C163.01 96.7884 162.799 97.0753 162.657 97.4446C162.515 97.8111 162.444 98.2386 162.444 98.7273ZM171.512 102.136C170.882 102.136 170.338 101.997 169.88 101.719C169.426 101.438 169.075 101.045 168.828 100.543C168.583 100.037 168.461 99.4489 168.461 98.7784C168.461 98.108 168.583 97.517 168.828 97.0057C169.075 96.4915 169.419 96.0909 169.859 95.804C170.302 95.5142 170.819 95.3693 171.41 95.3693C171.751 95.3693 172.088 95.4261 172.42 95.5398C172.752 95.6534 173.055 95.8381 173.328 96.0938C173.6 96.3466 173.818 96.6818 173.98 97.0994C174.142 97.517 174.223 98.0312 174.223 98.642V99.0682H169.177V98.1989H173.2C173.2 97.8295 173.126 97.5 172.978 97.2102C172.833 96.9205 172.626 96.6918 172.356 96.5241C172.089 96.3565 171.774 96.2727 171.41 96.2727C171.01 96.2727 170.663 96.3722 170.37 96.571C170.081 96.767 169.858 97.0227 169.701 97.3381C169.545 97.6534 169.467 97.9915 169.467 98.3523V98.9318C169.467 99.4261 169.552 99.8452 169.723 100.189C169.896 100.53 170.136 100.79 170.443 100.969C170.75 101.145 171.106 101.233 171.512 101.233C171.777 101.233 172.015 101.196 172.228 101.122C172.444 101.045 172.63 100.932 172.787 100.781C172.943 100.628 173.064 100.437 173.149 100.21L174.12 100.483C174.018 100.812 173.846 101.102 173.605 101.352C173.363 101.599 173.065 101.793 172.71 101.932C172.355 102.068 171.956 102.136 171.512 102.136ZM175.752 102V95.4545H176.724V96.4432H176.792C176.912 96.1193 177.127 95.8565 177.44 95.6548C177.752 95.4531 178.105 95.3523 178.497 95.3523C178.571 95.3523 178.663 95.3537 178.774 95.3565C178.885 95.3594 178.968 95.3636 179.025 95.3693V96.392C178.991 96.3835 178.913 96.3707 178.791 96.3537C178.672 96.3338 178.545 96.3239 178.412 96.3239C178.093 96.3239 177.809 96.3906 177.559 96.5241C177.312 96.6548 177.116 96.8366 176.971 97.0696C176.829 97.2997 176.758 97.5625 176.758 97.858V102H175.752ZM185.518 102.153C185.104 102.153 184.727 102.075 184.389 101.919C184.051 101.76 183.783 101.531 183.584 101.233C183.385 100.932 183.286 100.568 183.286 100.142C183.286 99.767 183.359 99.4631 183.507 99.2301C183.655 98.9943 183.852 98.8097 184.099 98.6761C184.347 98.5426 184.619 98.4432 184.918 98.3778C185.219 98.3097 185.521 98.2557 185.825 98.2159C186.223 98.1648 186.545 98.1264 186.793 98.1009C187.043 98.0724 187.224 98.0256 187.338 97.9602C187.455 97.8949 187.513 97.7812 187.513 97.6193V97.5852C187.513 97.1648 187.398 96.8381 187.168 96.6051C186.94 96.3722 186.595 96.2557 186.132 96.2557C185.652 96.2557 185.276 96.3608 185.003 96.571C184.73 96.7812 184.538 97.0057 184.428 97.2443L183.473 96.9034C183.643 96.5057 183.871 96.196 184.155 95.9744C184.442 95.75 184.754 95.5937 185.092 95.5057C185.433 95.4148 185.768 95.3693 186.098 95.3693C186.308 95.3693 186.55 95.3949 186.822 95.446C187.098 95.4943 187.364 95.5952 187.619 95.7486C187.878 95.902 188.092 96.1335 188.263 96.4432C188.433 96.7528 188.518 97.1676 188.518 97.6875V102H187.513V101.114H187.462C187.393 101.256 187.28 101.408 187.121 101.57C186.962 101.732 186.75 101.869 186.486 101.983C186.222 102.097 185.899 102.153 185.518 102.153ZM185.672 101.25C186.07 101.25 186.405 101.172 186.678 101.016C186.953 100.859 187.161 100.658 187.3 100.411C187.442 100.163 187.513 99.9034 187.513 99.6307V98.7102C187.47 98.7614 187.376 98.8082 187.232 98.8509C187.089 98.8906 186.925 98.9261 186.737 98.9574C186.553 98.9858 186.372 99.0114 186.196 99.0341C186.023 99.054 185.882 99.071 185.774 99.0852C185.513 99.1193 185.268 99.1747 185.041 99.2514C184.817 99.3253 184.635 99.4375 184.496 99.5881C184.359 99.7358 184.291 99.9375 184.291 100.193C184.291 100.543 184.42 100.807 184.679 100.986C184.94 101.162 185.271 101.25 185.672 101.25ZM191.36 98.0625V102H190.354V95.4545H191.326V96.4773H191.411C191.564 96.1449 191.797 95.8778 192.11 95.6761C192.422 95.4716 192.826 95.3693 193.32 95.3693C193.763 95.3693 194.151 95.4602 194.483 95.642C194.816 95.821 195.074 96.0938 195.259 96.4602C195.444 96.8239 195.536 97.2841 195.536 97.8409V102H194.53V97.9091C194.53 97.3949 194.397 96.9943 194.13 96.7074C193.863 96.4176 193.496 96.2727 193.03 96.2727C192.709 96.2727 192.422 96.3423 192.169 96.4815C191.919 96.6207 191.722 96.8239 191.577 97.0909C191.432 97.358 191.36 97.6818 191.36 98.0625ZM199.845 102.136C199.3 102.136 198.818 101.999 198.401 101.723C197.983 101.445 197.656 101.053 197.42 100.547C197.185 100.038 197.067 99.4375 197.067 98.7443C197.067 98.0568 197.185 97.4602 197.42 96.9545C197.656 96.4489 197.984 96.0582 198.405 95.7827C198.825 95.5071 199.311 95.3693 199.862 95.3693C200.288 95.3693 200.625 95.4403 200.872 95.5824C201.122 95.7216 201.313 95.8807 201.443 96.0597C201.577 96.2358 201.68 96.3807 201.754 96.4943H201.839V93.2727H202.845V102H201.874V100.994H201.754C201.68 101.114 201.575 101.264 201.439 101.446C201.303 101.625 201.108 101.786 200.855 101.928C200.602 102.067 200.266 102.136 199.845 102.136ZM199.982 101.233C200.385 101.233 200.726 101.128 201.004 100.918C201.283 100.705 201.494 100.411 201.639 100.036C201.784 99.6577 201.857 99.2216 201.857 98.7273C201.857 98.2386 201.786 97.8111 201.643 97.4446C201.501 97.0753 201.291 96.7884 201.013 96.5838C200.734 96.3764 200.391 96.2727 199.982 96.2727C199.555 96.2727 199.2 96.3821 198.916 96.6009C198.635 96.8168 198.423 97.1108 198.281 97.483C198.142 97.8523 198.072 98.267 198.072 98.7273C198.072 99.1932 198.143 99.6165 198.286 99.9972C198.43 100.375 198.643 100.676 198.925 100.901C199.209 101.122 199.561 101.233 199.982 101.233ZM210.673 102.136C210.128 102.136 209.646 101.999 209.229 101.723C208.811 101.445 208.484 101.053 208.249 100.547C208.013 100.038 207.895 99.4375 207.895 98.7443C207.895 98.0568 208.013 97.4602 208.249 96.9545C208.484 96.4489 208.813 96.0582 209.233 95.7827C209.653 95.5071 210.139 95.3693 210.69 95.3693C211.116 95.3693 211.453 95.4403 211.7 95.5824C211.95 95.7216 212.141 95.8807 212.271 96.0597C212.405 96.2358 212.509 96.3807 212.582 96.4943H212.668V93.2727H213.673V102H212.702V100.994H212.582C212.509 101.114 212.403 101.264 212.267 101.446C212.131 101.625 211.936 101.786 211.683 101.928C211.43 102.067 211.094 102.136 210.673 102.136ZM210.81 101.233C211.213 101.233 211.554 101.128 211.832 100.918C212.111 100.705 212.322 100.411 212.467 100.036C212.612 99.6577 212.685 99.2216 212.685 98.7273C212.685 98.2386 212.614 97.8111 212.472 97.4446C212.33 97.0753 212.119 96.7884 211.841 96.5838C211.563 96.3764 211.219 96.2727 210.81 96.2727C210.384 96.2727 210.028 96.3821 209.744 96.6009C209.463 96.8168 209.251 97.1108 209.109 97.483C208.97 97.8523 208.901 98.267 208.901 98.7273C208.901 99.1932 208.972 99.6165 209.114 99.9972C209.259 100.375 209.472 100.676 209.753 100.901C210.037 101.122 210.389 101.233 210.81 101.233ZM218.399 102.136C217.768 102.136 217.224 101.997 216.767 101.719C216.312 101.438 215.962 101.045 215.714 100.543C215.47 100.037 215.348 99.4489 215.348 98.7784C215.348 98.108 215.47 97.517 215.714 97.0057C215.962 96.4915 216.305 96.0909 216.746 95.804C217.189 95.5142 217.706 95.3693 218.297 95.3693C218.638 95.3693 218.974 95.4261 219.307 95.5398C219.639 95.6534 219.942 95.8381 220.214 96.0938C220.487 96.3466 220.705 96.6818 220.866 97.0994C221.028 97.517 221.109 98.0312 221.109 98.642V99.0682H216.064V98.1989H220.087C220.087 97.8295 220.013 97.5 219.865 97.2102C219.72 96.9205 219.513 96.6918 219.243 96.5241C218.976 96.3565 218.661 96.2727 218.297 96.2727C217.896 96.2727 217.55 96.3722 217.257 96.571C216.967 96.767 216.744 97.0227 216.588 97.3381C216.432 97.6534 216.354 97.9915 216.354 98.3523V98.9318C216.354 99.4261 216.439 99.8452 216.609 100.189C216.783 100.53 217.023 100.79 217.33 100.969C217.636 101.145 217.993 101.233 218.399 101.233C218.663 101.233 218.902 101.196 219.115 101.122C219.331 101.045 219.517 100.932 219.673 100.781C219.83 100.628 219.95 100.437 220.036 100.21L221.007 100.483C220.905 100.812 220.733 101.102 220.491 101.352C220.25 101.599 219.952 101.793 219.597 101.932C219.241 102.068 218.842 102.136 218.399 102.136ZM227.276 96.9205L226.372 97.1761C226.315 97.0256 226.232 96.8793 226.121 96.7372C226.013 96.5923 225.865 96.473 225.678 96.3793C225.49 96.2855 225.25 96.2386 224.957 96.2386C224.557 96.2386 224.223 96.331 223.956 96.5156C223.692 96.6974 223.56 96.929 223.56 97.2102C223.56 97.4602 223.651 97.6577 223.832 97.8026C224.014 97.9474 224.298 98.0682 224.685 98.1648L225.656 98.4034C226.241 98.5455 226.678 98.7628 226.964 99.0554C227.251 99.3452 227.395 99.7187 227.395 100.176C227.395 100.551 227.287 100.886 227.071 101.182C226.858 101.477 226.56 101.71 226.176 101.881C225.793 102.051 225.347 102.136 224.838 102.136C224.17 102.136 223.618 101.991 223.18 101.702C222.743 101.412 222.466 100.989 222.349 100.432L223.304 100.193C223.395 100.545 223.567 100.81 223.82 100.986C224.075 101.162 224.409 101.25 224.821 101.25C225.29 101.25 225.662 101.151 225.938 100.952C226.216 100.75 226.355 100.509 226.355 100.227C226.355 100 226.276 99.8097 226.116 99.6562C225.957 99.5 225.713 99.3835 225.384 99.3068L224.293 99.0511C223.693 98.9091 223.253 98.6889 222.972 98.3906C222.693 98.0895 222.554 97.7131 222.554 97.2614C222.554 96.892 222.658 96.5653 222.865 96.2812C223.075 95.9972 223.361 95.7741 223.722 95.6122C224.085 95.4503 224.497 95.3693 224.957 95.3693C225.605 95.3693 226.114 95.5114 226.483 95.7955C226.855 96.0795 227.119 96.4545 227.276 96.9205ZM228.909 102V95.4545H229.914V102H228.909ZM229.42 94.3636C229.224 94.3636 229.055 94.2969 228.913 94.1634C228.774 94.0298 228.704 93.8693 228.704 93.6818C228.704 93.4943 228.774 93.3338 228.913 93.2003C229.055 93.0668 229.224 93 229.42 93C229.616 93 229.784 93.0668 229.923 93.2003C230.065 93.3338 230.136 93.4943 230.136 93.6818C230.136 93.8693 230.065 94.0298 229.923 94.1634C229.784 94.2969 229.616 94.3636 229.42 94.3636ZM234.398 104.591C233.913 104.591 233.495 104.528 233.146 104.403C232.796 104.281 232.505 104.119 232.272 103.918C232.042 103.719 231.859 103.506 231.722 103.278L232.523 102.716C232.614 102.835 232.729 102.972 232.869 103.125C233.008 103.281 233.198 103.416 233.44 103.53C233.684 103.646 234.004 103.705 234.398 103.705C234.927 103.705 235.363 103.577 235.707 103.321C236.05 103.065 236.222 102.665 236.222 102.119V100.79H236.137C236.063 100.909 235.958 101.057 235.822 101.233C235.688 101.406 235.495 101.561 235.242 101.697C234.992 101.831 234.654 101.898 234.228 101.898C233.7 101.898 233.225 101.773 232.805 101.523C232.387 101.273 232.056 100.909 231.812 100.432C231.57 99.9545 231.45 99.375 231.45 98.6932C231.45 98.0227 231.567 97.4389 231.803 96.9418C232.039 96.4418 232.367 96.0554 232.788 95.7827C233.208 95.5071 233.694 95.3693 234.245 95.3693C234.671 95.3693 235.009 95.4403 235.259 95.5824C235.512 95.7216 235.705 95.8807 235.839 96.0597C235.975 96.2358 236.08 96.3807 236.154 96.4943H236.256V95.4545H237.228V102.188C237.228 102.75 237.1 103.207 236.844 103.56C236.592 103.915 236.251 104.175 235.822 104.339C235.396 104.507 234.921 104.591 234.398 104.591ZM234.364 100.994C234.768 100.994 235.109 100.902 235.387 100.717C235.665 100.533 235.877 100.267 236.022 99.9205C236.167 99.5739 236.239 99.1591 236.239 98.6761C236.239 98.2045 236.168 97.7884 236.026 97.4276C235.884 97.0668 235.674 96.7841 235.396 96.5795C235.117 96.375 234.773 96.2727 234.364 96.2727C233.938 96.2727 233.583 96.3807 233.299 96.5966C233.018 96.8125 232.806 97.1023 232.664 97.4659C232.525 97.8295 232.455 98.233 232.455 98.6761C232.455 99.1307 232.526 99.5327 232.668 99.8821C232.813 100.229 233.026 100.501 233.308 100.7C233.592 100.896 233.944 100.994 234.364 100.994ZM240.075 98.0625V102H239.069V95.4545H240.04V96.4773H240.126C240.279 96.1449 240.512 95.8778 240.825 95.6761C241.137 95.4716 241.54 95.3693 242.035 95.3693C242.478 95.3693 242.866 95.4602 243.198 95.642C243.531 95.821 243.789 96.0938 243.974 96.4602C244.158 96.8239 244.251 97.2841 244.251 97.8409V102H243.245V97.9091C243.245 97.3949 243.112 96.9943 242.844 96.7074C242.577 96.4176 242.211 96.2727 241.745 96.2727C241.424 96.2727 241.137 96.3423 240.884 96.4815C240.634 96.6207 240.437 96.8239 240.292 97.0909C240.147 97.358 240.075 97.6818 240.075 98.0625ZM248.833 102.136C248.202 102.136 247.658 101.997 247.201 101.719C246.746 101.438 246.395 101.045 246.148 100.543C245.904 100.037 245.782 99.4489 245.782 98.7784C245.782 98.108 245.904 97.517 246.148 97.0057C246.395 96.4915 246.739 96.0909 247.179 95.804C247.623 95.5142 248.14 95.3693 248.73 95.3693C249.071 95.3693 249.408 95.4261 249.74 95.5398C250.073 95.6534 250.375 95.8381 250.648 96.0938C250.921 96.3466 251.138 96.6818 251.3 97.0994C251.462 97.517 251.543 98.0312 251.543 98.642V99.0682H246.498V98.1989H250.52C250.52 97.8295 250.446 97.5 250.299 97.2102C250.154 96.9205 249.946 96.6918 249.676 96.5241C249.409 96.3565 249.094 96.2727 248.73 96.2727C248.33 96.2727 247.983 96.3722 247.691 96.571C247.401 96.767 247.178 97.0227 247.022 97.3381C246.865 97.6534 246.787 97.9915 246.787 98.3523V98.9318C246.787 99.4261 246.873 99.8452 247.043 100.189C247.216 100.53 247.456 100.79 247.763 100.969C248.07 101.145 248.426 101.233 248.833 101.233C249.097 101.233 249.336 101.196 249.549 101.122C249.765 101.045 249.951 100.932 250.107 100.781C250.263 100.628 250.384 100.437 250.469 100.21L251.441 100.483C251.338 100.812 251.167 101.102 250.925 101.352C250.684 101.599 250.385 101.793 250.03 101.932C249.675 102.068 249.276 102.136 248.833 102.136ZM253.073 102V95.4545H254.044V96.4432H254.113C254.232 96.1193 254.448 95.8565 254.76 95.6548C255.073 95.4531 255.425 95.3523 255.817 95.3523C255.891 95.3523 255.983 95.3537 256.094 95.3565C256.205 95.3594 256.289 95.3636 256.346 95.3693V96.392C256.311 96.3835 256.233 96.3707 256.111 96.3537C255.992 96.3338 255.865 96.3239 255.732 96.3239C255.414 96.3239 255.13 96.3906 254.88 96.5241C254.632 96.6548 254.436 96.8366 254.292 97.0696C254.15 97.2997 254.078 97.5625 254.078 97.858V102H253.073Z" fill="white"/>
</g>
<g style="mix-blend-mode:difference">
<path d="M63.0114 252V240.364H70.8523V242.392H65.4716V245.165H70.4489V247.193H65.4716V249.972H70.875V252H63.0114ZM72.7628 252V243.273H75.0696V244.812H75.1719C75.3537 244.301 75.6567 243.898 76.081 243.602C76.5052 243.307 77.0128 243.159 77.6037 243.159C78.2022 243.159 78.7116 243.309 79.1321 243.608C79.5526 243.903 79.8329 244.305 79.973 244.812H80.0639C80.242 244.312 80.5639 243.913 81.0298 243.614C81.4995 243.311 82.0545 243.159 82.6946 243.159C83.509 243.159 84.17 243.419 84.6776 243.938C85.1889 244.453 85.4446 245.184 85.4446 246.131V252H83.0298V246.608C83.0298 246.123 82.901 245.759 82.6435 245.517C82.3859 245.275 82.0639 245.153 81.6776 245.153C81.2382 245.153 80.8954 245.294 80.6491 245.574C80.4029 245.85 80.2798 246.216 80.2798 246.67V252H77.9332V246.557C77.9332 246.129 77.8101 245.788 77.5639 245.534C77.3215 245.28 77.0014 245.153 76.6037 245.153C76.3348 245.153 76.0923 245.222 75.8764 245.358C75.6643 245.491 75.4957 245.678 75.3707 245.92C75.2457 246.159 75.1832 246.439 75.1832 246.761V252H72.7628ZM89.8452 252.165C89.2884 252.165 88.7921 252.068 88.3565 251.875C87.9209 251.678 87.5762 251.388 87.3224 251.006C87.0724 250.619 86.9474 250.138 86.9474 249.562C86.9474 249.078 87.0365 248.67 87.2145 248.341C87.3925 248.011 87.6349 247.746 87.9418 247.545C88.2486 247.345 88.5971 247.193 88.9872 247.091C89.3812 246.989 89.794 246.917 90.2259 246.875C90.7334 246.822 91.1425 246.773 91.4531 246.727C91.7637 246.678 91.9891 246.606 92.1293 246.511C92.2694 246.417 92.3395 246.277 92.3395 246.091V246.057C92.3395 245.697 92.2259 245.419 91.9986 245.222C91.7751 245.025 91.4569 244.926 91.044 244.926C90.6084 244.926 90.2618 245.023 90.0043 245.216C89.7467 245.405 89.5762 245.644 89.4929 245.932L87.2543 245.75C87.3679 245.22 87.5914 244.761 87.9247 244.375C88.258 243.985 88.688 243.686 89.2145 243.477C89.7448 243.265 90.3584 243.159 91.0554 243.159C91.5402 243.159 92.0043 243.216 92.4474 243.33C92.8944 243.443 93.2902 243.619 93.6349 243.858C93.9834 244.097 94.258 244.403 94.4588 244.778C94.6596 245.15 94.7599 245.595 94.7599 246.114V252H92.4645V250.79H92.3963C92.2562 251.062 92.0687 251.303 91.8338 251.511C91.599 251.716 91.3168 251.877 90.9872 251.994C90.6577 252.108 90.277 252.165 89.8452 252.165ZM90.5384 250.494C90.8944 250.494 91.2088 250.424 91.4815 250.284C91.7543 250.14 91.9683 249.947 92.1236 249.705C92.2789 249.462 92.3565 249.187 92.3565 248.881V247.955C92.2808 248.004 92.1766 248.049 92.044 248.091C91.9152 248.129 91.7694 248.165 91.6065 248.199C91.4437 248.229 91.2808 248.258 91.1179 248.284C90.955 248.307 90.8073 248.328 90.6747 248.347C90.3906 248.388 90.1425 248.455 89.9304 248.545C89.7183 248.636 89.5535 248.759 89.4361 248.915C89.3187 249.066 89.2599 249.256 89.2599 249.483C89.2599 249.812 89.3793 250.064 89.6179 250.239C89.8603 250.409 90.1671 250.494 90.5384 250.494ZM96.6378 252V243.273H99.0582V252H96.6378ZM97.8537 242.148C97.4938 242.148 97.1851 242.028 96.9276 241.79C96.6738 241.547 96.5469 241.258 96.5469 240.92C96.5469 240.587 96.6738 240.301 96.9276 240.062C97.1851 239.82 97.4938 239.699 97.8537 239.699C98.2135 239.699 98.5204 239.82 98.7741 240.062C99.0317 240.301 99.1605 240.587 99.1605 240.92C99.1605 241.258 99.0317 241.547 98.7741 241.79C98.5204 242.028 98.2135 242.148 97.8537 242.148ZM103.418 240.364V252H100.997V240.364H103.418Z" fill="white"/>
<path d="M64.5682 269.75V275H63.2273V263.364H64.5682V267.636H64.6818C64.8864 267.186 65.1932 266.828 65.6023 266.562C66.0152 266.294 66.5644 266.159 67.25 266.159C67.8447 266.159 68.3655 266.278 68.8125 266.517C69.2595 266.752 69.6061 267.114 69.8523 267.602C70.1023 268.087 70.2273 268.705 70.2273 269.455V275H68.8864V269.545C68.8864 268.852 68.7064 268.316 68.3466 267.938C67.9905 267.555 67.4962 267.364 66.8636 267.364C66.4242 267.364 66.0303 267.456 65.6818 267.642C65.3371 267.828 65.0644 268.098 64.8636 268.455C64.6667 268.811 64.5682 269.242 64.5682 269.75ZM76.2259 275.182C75.438 275.182 74.7467 274.994 74.152 274.619C73.5611 274.244 73.099 273.72 72.7656 273.045C72.4361 272.371 72.2713 271.583 72.2713 270.682C72.2713 269.773 72.4361 268.979 72.7656 268.301C73.099 267.623 73.5611 267.097 74.152 266.722C74.7467 266.347 75.438 266.159 76.2259 266.159C77.0137 266.159 77.7031 266.347 78.294 266.722C78.8887 267.097 79.3509 267.623 79.6804 268.301C80.0137 268.979 80.1804 269.773 80.1804 270.682C80.1804 271.583 80.0137 272.371 79.6804 273.045C79.3509 273.72 78.8887 274.244 78.294 274.619C77.7031 274.994 77.0137 275.182 76.2259 275.182ZM76.2259 273.977C76.8243 273.977 77.3168 273.824 77.7031 273.517C78.0895 273.21 78.3755 272.807 78.5611 272.307C78.7467 271.807 78.8395 271.265 78.8395 270.682C78.8395 270.098 78.7467 269.555 78.5611 269.051C78.3755 268.547 78.0895 268.14 77.7031 267.83C77.3168 267.519 76.8243 267.364 76.2259 267.364C75.6274 267.364 75.1349 267.519 74.7486 267.83C74.3622 268.14 74.0762 268.547 73.8906 269.051C73.705 269.555 73.6122 270.098 73.6122 270.682C73.6122 271.265 73.705 271.807 73.8906 272.307C74.0762 272.807 74.3622 273.21 74.7486 273.517C75.1349 273.824 75.6274 273.977 76.2259 273.977ZM84.7955 275.205C84.2424 275.205 83.7405 275.1 83.2898 274.892C82.839 274.68 82.4811 274.375 82.2159 273.977C81.9508 273.576 81.8182 273.091 81.8182 272.523C81.8182 272.023 81.9167 271.617 82.1136 271.307C82.3106 270.992 82.5739 270.746 82.9034 270.568C83.233 270.39 83.5966 270.258 83.9943 270.17C84.3958 270.08 84.7992 270.008 85.2045 269.955C85.7348 269.886 86.1648 269.835 86.4943 269.801C86.8277 269.763 87.0701 269.701 87.2216 269.614C87.3769 269.527 87.4545 269.375 87.4545 269.159V269.114C87.4545 268.553 87.3011 268.117 86.9943 267.807C86.6913 267.496 86.2311 267.341 85.6136 267.341C84.9735 267.341 84.4716 267.481 84.108 267.761C83.7443 268.042 83.4886 268.341 83.3409 268.659L82.0682 268.205C82.2955 267.674 82.5985 267.261 82.9773 266.966C83.3598 266.667 83.7765 266.458 84.2273 266.341C84.6818 266.22 85.1288 266.159 85.5682 266.159C85.8485 266.159 86.1705 266.193 86.5341 266.261C86.9015 266.326 87.2557 266.46 87.5966 266.665C87.9413 266.869 88.2273 267.178 88.4545 267.591C88.6818 268.004 88.7955 268.557 88.7955 269.25V275H87.4545V273.818H87.3864C87.2955 274.008 87.1439 274.21 86.9318 274.426C86.7197 274.642 86.4375 274.826 86.0852 274.977C85.733 275.129 85.303 275.205 84.7955 275.205ZM85 274C85.5303 274 85.9773 273.896 86.3409 273.688C86.7083 273.479 86.9848 273.21 87.1705 272.881C87.3598 272.551 87.4545 272.205 87.4545 271.841V270.614C87.3977 270.682 87.2727 270.744 87.0795 270.801C86.8902 270.854 86.6705 270.902 86.4205 270.943C86.1742 270.981 85.9337 271.015 85.6989 271.045C85.4678 271.072 85.2803 271.095 85.1364 271.114C84.7879 271.159 84.4621 271.233 84.1591 271.335C83.8598 271.434 83.6174 271.583 83.4318 271.784C83.25 271.981 83.1591 272.25 83.1591 272.591C83.1591 273.057 83.3314 273.409 83.6761 273.648C84.0246 273.883 84.4659 274 85 274ZM92.5838 269.75V275H91.2429V266.273H92.5384V267.636H92.652C92.8565 267.193 93.1671 266.837 93.5838 266.568C94.0005 266.295 94.5384 266.159 95.1974 266.159C95.7884 266.159 96.3054 266.28 96.7486 266.523C97.1918 266.761 97.5365 267.125 97.7827 267.614C98.0289 268.098 98.152 268.712 98.152 269.455V275H96.8111V269.545C96.8111 268.86 96.633 268.326 96.277 267.943C95.9209 267.557 95.4323 267.364 94.8111 267.364C94.383 267.364 94.0005 267.456 93.6634 267.642C93.33 267.828 93.0668 268.098 92.8736 268.455C92.6804 268.811 92.5838 269.242 92.5838 269.75ZM104.125 278.455C103.477 278.455 102.92 278.371 102.455 278.205C101.989 278.042 101.6 277.826 101.29 277.557C100.983 277.292 100.739 277.008 100.557 276.705L101.625 275.955C101.746 276.114 101.9 276.295 102.085 276.5C102.271 276.708 102.525 276.888 102.847 277.04C103.172 277.195 103.598 277.273 104.125 277.273C104.83 277.273 105.411 277.102 105.869 276.761C106.328 276.42 106.557 275.886 106.557 275.159V273.386H106.443C106.345 273.545 106.205 273.742 106.023 273.977C105.845 274.208 105.587 274.415 105.25 274.597C104.917 274.775 104.466 274.864 103.898 274.864C103.193 274.864 102.561 274.697 102 274.364C101.443 274.03 101.002 273.545 100.676 272.909C100.354 272.273 100.193 271.5 100.193 270.591C100.193 269.697 100.35 268.919 100.665 268.256C100.979 267.589 101.417 267.074 101.977 266.71C102.538 266.343 103.186 266.159 103.92 266.159C104.489 266.159 104.939 266.254 105.273 266.443C105.61 266.629 105.867 266.841 106.045 267.08C106.227 267.314 106.367 267.508 106.466 267.659H106.602V266.273H107.898V275.25C107.898 276 107.727 276.61 107.386 277.08C107.049 277.553 106.595 277.9 106.023 278.119C105.455 278.343 104.822 278.455 104.125 278.455ZM104.08 273.659C104.617 273.659 105.072 273.536 105.443 273.29C105.814 273.044 106.097 272.689 106.29 272.227C106.483 271.765 106.58 271.212 106.58 270.568C106.58 269.939 106.485 269.384 106.295 268.903C106.106 268.422 105.826 268.045 105.455 267.773C105.083 267.5 104.625 267.364 104.08 267.364C103.511 267.364 103.038 267.508 102.659 267.795C102.284 268.083 102.002 268.47 101.812 268.955C101.627 269.439 101.534 269.977 101.534 270.568C101.534 271.174 101.629 271.71 101.818 272.176C102.011 272.638 102.295 273.002 102.67 273.267C103.049 273.528 103.519 273.659 104.08 273.659ZM110.534 275V263.364H111.875V267.659H111.989C112.087 267.508 112.223 267.314 112.398 267.08C112.576 266.841 112.83 266.629 113.159 266.443C113.492 266.254 113.943 266.159 114.511 266.159C115.246 266.159 115.894 266.343 116.455 266.71C117.015 267.078 117.453 267.598 117.767 268.273C118.081 268.947 118.239 269.742 118.239 270.659C118.239 271.583 118.081 272.384 117.767 273.062C117.453 273.737 117.017 274.259 116.46 274.631C115.903 274.998 115.261 275.182 114.534 275.182C113.973 275.182 113.525 275.089 113.188 274.903C112.85 274.714 112.591 274.5 112.409 274.261C112.227 274.019 112.087 273.818 111.989 273.659H111.83V275H110.534ZM111.852 270.636C111.852 271.295 111.949 271.877 112.142 272.381C112.335 272.881 112.617 273.273 112.989 273.557C113.36 273.837 113.814 273.977 114.352 273.977C114.913 273.977 115.381 273.83 115.756 273.534C116.134 273.235 116.419 272.833 116.608 272.33C116.801 271.822 116.898 271.258 116.898 270.636C116.898 270.023 116.803 269.47 116.614 268.977C116.428 268.481 116.146 268.089 115.767 267.801C115.392 267.509 114.92 267.364 114.352 267.364C113.807 267.364 113.348 267.502 112.977 267.778C112.606 268.051 112.326 268.434 112.136 268.926C111.947 269.415 111.852 269.985 111.852 270.636ZM122.858 275.205C122.305 275.205 121.803 275.1 121.352 274.892C120.902 274.68 120.544 274.375 120.278 273.977C120.013 273.576 119.881 273.091 119.881 272.523C119.881 272.023 119.979 271.617 120.176 271.307C120.373 270.992 120.636 270.746 120.966 270.568C121.295 270.39 121.659 270.258 122.057 270.17C122.458 270.08 122.862 270.008 123.267 269.955C123.797 269.886 124.227 269.835 124.557 269.801C124.89 269.763 125.133 269.701 125.284 269.614C125.439 269.527 125.517 269.375 125.517 269.159V269.114C125.517 268.553 125.364 268.117 125.057 267.807C124.754 267.496 124.294 267.341 123.676 267.341C123.036 267.341 122.534 267.481 122.17 267.761C121.807 268.042 121.551 268.341 121.403 268.659L120.131 268.205C120.358 267.674 120.661 267.261 121.04 266.966C121.422 266.667 121.839 266.458 122.29 266.341C122.744 266.22 123.191 266.159 123.631 266.159C123.911 266.159 124.233 266.193 124.597 266.261C124.964 266.326 125.318 266.46 125.659 266.665C126.004 266.869 126.29 267.178 126.517 267.591C126.744 268.004 126.858 268.557 126.858 269.25V275H125.517V273.818H125.449C125.358 274.008 125.206 274.21 124.994 274.426C124.782 274.642 124.5 274.826 124.148 274.977C123.795 275.129 123.366 275.205 122.858 275.205ZM123.062 274C123.593 274 124.04 273.896 124.403 273.688C124.771 273.479 125.047 273.21 125.233 272.881C125.422 272.551 125.517 272.205 125.517 271.841V270.614C125.46 270.682 125.335 270.744 125.142 270.801C124.953 270.854 124.733 270.902 124.483 270.943C124.237 270.981 123.996 271.015 123.761 271.045C123.53 271.072 123.343 271.095 123.199 271.114C122.85 271.159 122.525 271.233 122.222 271.335C121.922 271.434 121.68 271.583 121.494 271.784C121.313 271.981 121.222 272.25 121.222 272.591C121.222 273.057 121.394 273.409 121.739 273.648C122.087 273.883 122.528 274 123.062 274ZM132.851 275.182C132.033 275.182 131.328 274.989 130.737 274.602C130.146 274.216 129.692 273.684 129.374 273.006C129.055 272.328 128.896 271.553 128.896 270.682C128.896 269.795 129.059 269.013 129.385 268.335C129.714 267.653 130.173 267.121 130.76 266.739C131.351 266.352 132.04 266.159 132.828 266.159C133.442 266.159 133.995 266.273 134.487 266.5C134.98 266.727 135.383 267.045 135.697 267.455C136.012 267.864 136.207 268.341 136.283 268.886H134.942C134.839 268.489 134.612 268.136 134.26 267.83C133.911 267.519 133.442 267.364 132.851 267.364C132.328 267.364 131.87 267.5 131.476 267.773C131.086 268.042 130.781 268.422 130.561 268.915C130.345 269.403 130.237 269.977 130.237 270.636C130.237 271.311 130.343 271.898 130.555 272.398C130.771 272.898 131.074 273.286 131.464 273.562C131.858 273.839 132.321 273.977 132.851 273.977C133.199 273.977 133.516 273.917 133.8 273.795C134.084 273.674 134.324 273.5 134.521 273.273C134.718 273.045 134.858 272.773 134.942 272.455H136.283C136.207 272.97 136.019 273.434 135.72 273.847C135.425 274.256 135.033 274.581 134.544 274.824C134.059 275.062 133.495 275.182 132.851 275.182ZM139.584 269.75V275H138.243V263.364H139.584V267.636H139.697C139.902 267.186 140.209 266.828 140.618 266.562C141.031 266.294 141.58 266.159 142.266 266.159C142.86 266.159 143.381 266.278 143.828 266.517C144.275 266.752 144.622 267.114 144.868 267.602C145.118 268.087 145.243 268.705 145.243 269.455V275H143.902V269.545C143.902 268.852 143.722 268.316 143.362 267.938C143.006 267.555 142.512 267.364 141.879 267.364C141.44 267.364 141.046 267.456 140.697 267.642C140.353 267.828 140.08 268.098 139.879 268.455C139.682 268.811 139.584 269.242 139.584 269.75ZM151.469 275.159C150.613 275.159 149.884 274.926 149.281 274.46C148.679 273.991 148.219 273.311 147.901 272.42C147.582 271.527 147.423 270.447 147.423 269.182C147.423 267.924 147.582 266.85 147.901 265.96C148.223 265.066 148.685 264.384 149.287 263.915C149.893 263.441 150.62 263.205 151.469 263.205C152.317 263.205 153.043 263.441 153.645 263.915C154.251 264.384 154.713 265.066 155.031 265.96C155.353 266.85 155.514 267.924 155.514 269.182C155.514 270.447 155.355 271.527 155.037 272.42C154.719 273.311 154.259 273.991 153.656 274.46C153.054 274.926 152.325 275.159 151.469 275.159ZM151.469 273.909C152.317 273.909 152.976 273.5 153.446 272.682C153.916 271.864 154.151 270.697 154.151 269.182C154.151 268.174 154.043 267.316 153.827 266.608C153.615 265.9 153.308 265.36 152.906 264.989C152.509 264.617 152.029 264.432 151.469 264.432C150.628 264.432 149.971 264.847 149.497 265.676C149.024 266.502 148.787 267.67 148.787 269.182C148.787 270.189 148.893 271.045 149.105 271.75C149.317 272.455 149.622 272.991 150.02 273.358C150.421 273.725 150.904 273.909 151.469 273.909ZM161.378 263.205C161.855 263.208 162.332 263.299 162.81 263.477C163.287 263.655 163.723 263.951 164.116 264.364C164.51 264.773 164.827 265.331 165.065 266.04C165.304 266.748 165.423 267.636 165.423 268.705C165.423 269.739 165.325 270.657 165.128 271.46C164.935 272.259 164.654 272.934 164.287 273.483C163.923 274.032 163.48 274.449 162.957 274.733C162.438 275.017 161.851 275.159 161.196 275.159C160.545 275.159 159.963 275.03 159.452 274.773C158.944 274.511 158.527 274.15 158.202 273.688C157.88 273.222 157.673 272.682 157.582 272.068H158.969C159.094 272.602 159.342 273.044 159.713 273.392C160.088 273.737 160.582 273.909 161.196 273.909C162.094 273.909 162.802 273.517 163.321 272.733C163.844 271.949 164.105 270.841 164.105 269.409H164.014C163.802 269.727 163.55 270.002 163.259 270.233C162.967 270.464 162.643 270.642 162.287 270.767C161.931 270.892 161.552 270.955 161.151 270.955C160.484 270.955 159.872 270.79 159.315 270.46C158.762 270.127 158.319 269.67 157.986 269.091C157.656 268.508 157.491 267.841 157.491 267.091C157.491 266.379 157.651 265.727 157.969 265.136C158.291 264.542 158.741 264.068 159.321 263.716C159.904 263.364 160.59 263.193 161.378 263.205ZM161.378 264.455C160.901 264.455 160.471 264.574 160.088 264.812C159.709 265.047 159.408 265.366 159.185 265.767C158.965 266.165 158.855 266.606 158.855 267.091C158.855 267.576 158.961 268.017 159.173 268.415C159.389 268.809 159.683 269.123 160.054 269.358C160.429 269.589 160.855 269.705 161.332 269.705C161.692 269.705 162.027 269.634 162.338 269.494C162.649 269.35 162.92 269.155 163.151 268.909C163.385 268.659 163.569 268.377 163.702 268.062C163.834 267.744 163.901 267.413 163.901 267.068C163.901 266.614 163.791 266.187 163.571 265.79C163.355 265.392 163.056 265.07 162.673 264.824C162.295 264.578 161.863 264.455 161.378 264.455ZM171.385 275.159C170.605 275.159 169.915 275.021 169.317 274.744C168.722 274.464 168.258 274.08 167.925 273.591C167.591 273.098 167.427 272.538 167.43 271.909C167.427 271.417 167.523 270.962 167.72 270.545C167.917 270.125 168.186 269.775 168.527 269.494C168.872 269.21 169.256 269.03 169.68 268.955V268.886C169.124 268.742 168.68 268.43 168.351 267.949C168.021 267.464 167.858 266.913 167.862 266.295C167.858 265.705 168.008 265.176 168.311 264.71C168.614 264.244 169.031 263.877 169.561 263.608C170.095 263.339 170.703 263.205 171.385 263.205C172.059 263.205 172.661 263.339 173.192 263.608C173.722 263.877 174.139 264.244 174.442 264.71C174.749 265.176 174.904 265.705 174.908 266.295C174.904 266.913 174.735 267.464 174.402 267.949C174.072 268.43 173.635 268.742 173.089 268.886V268.955C173.51 269.03 173.889 269.21 174.226 269.494C174.563 269.775 174.832 270.125 175.033 270.545C175.233 270.962 175.336 271.417 175.339 271.909C175.336 272.538 175.165 273.098 174.828 273.591C174.495 274.08 174.031 274.464 173.436 274.744C172.845 275.021 172.161 275.159 171.385 275.159ZM171.385 273.909C171.911 273.909 172.366 273.824 172.749 273.653C173.131 273.483 173.427 273.242 173.635 272.932C173.843 272.621 173.949 272.258 173.953 271.841C173.949 271.402 173.836 271.013 173.612 270.676C173.389 270.339 173.084 270.074 172.697 269.881C172.315 269.687 171.877 269.591 171.385 269.591C170.889 269.591 170.446 269.687 170.055 269.881C169.669 270.074 169.364 270.339 169.141 270.676C168.921 271.013 168.813 271.402 168.817 271.841C168.813 272.258 168.913 272.621 169.118 272.932C169.326 273.242 169.624 273.483 170.01 273.653C170.396 273.824 170.855 273.909 171.385 273.909ZM171.385 268.386C171.802 268.386 172.171 268.303 172.493 268.136C172.819 267.97 173.074 267.737 173.26 267.438C173.446 267.138 173.54 266.788 173.544 266.386C173.54 265.992 173.447 265.65 173.266 265.358C173.084 265.062 172.832 264.835 172.51 264.676C172.188 264.513 171.813 264.432 171.385 264.432C170.949 264.432 170.569 264.513 170.243 264.676C169.917 264.835 169.665 265.062 169.487 265.358C169.309 265.65 169.222 265.992 169.226 266.386C169.222 266.788 169.311 267.138 169.493 267.438C169.679 267.737 169.934 267.97 170.26 268.136C170.586 268.303 170.961 268.386 171.385 268.386ZM181.153 275.159C180.487 275.159 179.886 275.027 179.352 274.761C178.818 274.496 178.39 274.133 178.068 273.67C177.746 273.208 177.57 272.682 177.54 272.091H178.903C178.956 272.617 179.195 273.053 179.619 273.398C180.047 273.739 180.559 273.909 181.153 273.909C181.631 273.909 182.055 273.797 182.426 273.574C182.801 273.35 183.095 273.044 183.307 272.653C183.523 272.259 183.631 271.814 183.631 271.318C183.631 270.811 183.519 270.358 183.295 269.96C183.076 269.559 182.773 269.242 182.386 269.011C182 268.78 181.559 268.663 181.062 268.659C180.706 268.655 180.341 268.71 179.966 268.824C179.591 268.934 179.282 269.076 179.04 269.25L177.722 269.091L178.426 263.364H184.472V264.614H179.608L179.199 268.045H179.267C179.506 267.856 179.805 267.699 180.165 267.574C180.525 267.449 180.9 267.386 181.29 267.386C182.002 267.386 182.636 267.557 183.193 267.898C183.754 268.235 184.193 268.697 184.511 269.284C184.833 269.871 184.994 270.542 184.994 271.295C184.994 272.038 184.828 272.701 184.494 273.284C184.165 273.864 183.71 274.322 183.131 274.659C182.551 274.992 181.892 275.159 181.153 275.159ZM193.979 278.068C192.82 278.068 191.795 277.909 190.905 277.591C190.015 277.277 189.267 276.813 188.661 276.199C188.054 275.585 187.596 274.833 187.286 273.943C186.975 273.053 186.82 272.034 186.82 270.886C186.82 269.777 186.977 268.784 187.291 267.909C187.609 267.034 188.07 266.292 188.672 265.682C189.278 265.068 190.013 264.6 190.876 264.278C191.744 263.956 192.725 263.795 193.82 263.795C194.884 263.795 195.816 263.97 196.615 264.318C197.418 264.663 198.089 265.131 198.626 265.722C199.168 266.309 199.573 266.97 199.842 267.705C200.115 268.439 200.251 269.197 200.251 269.977C200.251 270.527 200.225 271.083 200.172 271.648C200.119 272.212 200.007 272.731 199.837 273.205C199.666 273.674 199.403 274.053 199.047 274.341C198.695 274.629 198.217 274.773 197.615 274.773C197.35 274.773 197.058 274.731 196.74 274.648C196.422 274.564 196.14 274.426 195.893 274.233C195.647 274.04 195.501 273.78 195.456 273.455H195.388C195.297 273.674 195.157 273.883 194.967 274.08C194.782 274.277 194.537 274.434 194.234 274.551C193.935 274.669 193.57 274.72 193.138 274.705C192.645 274.686 192.212 274.576 191.837 274.375C191.462 274.17 191.147 273.894 190.893 273.545C190.643 273.193 190.454 272.786 190.325 272.324C190.2 271.858 190.138 271.356 190.138 270.818C190.138 270.307 190.214 269.839 190.365 269.415C190.517 268.991 190.727 268.619 190.996 268.301C191.268 267.983 191.587 267.729 191.95 267.54C192.318 267.347 192.714 267.227 193.138 267.182C193.517 267.144 193.861 267.161 194.172 267.233C194.482 267.301 194.738 267.405 194.939 267.545C195.14 267.682 195.267 267.833 195.32 268H195.388V267.364H196.592V272.5C196.592 272.818 196.681 273.098 196.859 273.341C197.037 273.583 197.297 273.705 197.638 273.705C198.024 273.705 198.32 273.572 198.524 273.307C198.732 273.042 198.875 272.633 198.95 272.08C199.03 271.527 199.07 270.818 199.07 269.955C199.07 269.447 199 268.947 198.859 268.455C198.723 267.958 198.515 267.494 198.234 267.062C197.958 266.631 197.607 266.25 197.183 265.92C196.759 265.591 196.261 265.333 195.689 265.148C195.121 264.958 194.475 264.864 193.751 264.864C192.861 264.864 192.064 265.002 191.359 265.278C190.659 265.551 190.062 265.951 189.57 266.477C189.081 267 188.708 267.636 188.45 268.386C188.196 269.133 188.07 269.981 188.07 270.932C188.07 271.898 188.196 272.756 188.45 273.506C188.708 274.256 189.087 274.888 189.587 275.403C190.09 275.919 190.714 276.309 191.456 276.574C192.198 276.843 193.054 276.977 194.024 276.977C194.441 276.977 194.852 276.938 195.257 276.858C195.662 276.778 196.02 276.691 196.331 276.597C196.642 276.502 196.865 276.432 197.001 276.386L197.32 277.432C197.085 277.53 196.778 277.629 196.399 277.727C196.024 277.826 195.623 277.907 195.195 277.972C194.77 278.036 194.365 278.068 193.979 278.068ZM193.32 273.545C193.827 273.545 194.238 273.443 194.553 273.239C194.867 273.034 195.096 272.725 195.24 272.312C195.384 271.9 195.456 271.379 195.456 270.75C195.456 270.114 195.376 269.617 195.217 269.261C195.058 268.905 194.823 268.655 194.513 268.511C194.202 268.367 193.82 268.295 193.365 268.295C192.933 268.295 192.564 268.409 192.257 268.636C191.954 268.86 191.721 269.159 191.558 269.534C191.399 269.905 191.32 270.311 191.32 270.75C191.32 271.235 191.384 271.691 191.513 272.119C191.642 272.544 191.852 272.888 192.143 273.153C192.435 273.415 192.827 273.545 193.32 273.545ZM205.781 278.455C205.134 278.455 204.577 278.371 204.111 278.205C203.645 278.042 203.257 277.826 202.946 277.557C202.639 277.292 202.395 277.008 202.213 276.705L203.281 275.955C203.402 276.114 203.556 276.295 203.741 276.5C203.927 276.708 204.181 276.888 204.503 277.04C204.829 277.195 205.255 277.273 205.781 277.273C206.486 277.273 207.067 277.102 207.526 276.761C207.984 276.42 208.213 275.886 208.213 275.159V273.386H208.099C208.001 273.545 207.861 273.742 207.679 273.977C207.501 274.208 207.243 274.415 206.906 274.597C206.573 274.775 206.122 274.864 205.554 274.864C204.849 274.864 204.217 274.697 203.656 274.364C203.099 274.03 202.658 273.545 202.332 272.909C202.01 272.273 201.849 271.5 201.849 270.591C201.849 269.697 202.007 268.919 202.321 268.256C202.635 267.589 203.073 267.074 203.634 266.71C204.194 266.343 204.842 266.159 205.577 266.159C206.145 266.159 206.596 266.254 206.929 266.443C207.266 266.629 207.524 266.841 207.702 267.08C207.884 267.314 208.024 267.508 208.122 267.659H208.259V266.273H209.554V275.25C209.554 276 209.384 276.61 209.043 277.08C208.705 277.553 208.251 277.9 207.679 278.119C207.111 278.343 206.478 278.455 205.781 278.455ZM205.736 273.659C206.274 273.659 206.728 273.536 207.099 273.29C207.471 273.044 207.753 272.689 207.946 272.227C208.139 271.765 208.236 271.212 208.236 270.568C208.236 269.939 208.141 269.384 207.952 268.903C207.762 268.422 207.482 268.045 207.111 267.773C206.74 267.5 206.281 267.364 205.736 267.364C205.168 267.364 204.694 267.508 204.315 267.795C203.94 268.083 203.658 268.47 203.469 268.955C203.283 269.439 203.19 269.977 203.19 270.568C203.19 271.174 203.285 271.71 203.474 272.176C203.668 272.638 203.952 273.002 204.327 273.267C204.705 273.528 205.175 273.659 205.736 273.659ZM212.009 275V266.273H213.304V267.636H213.418C213.599 267.17 213.893 266.809 214.298 266.551C214.704 266.29 215.19 266.159 215.759 266.159C216.334 266.159 216.813 266.29 217.196 266.551C217.582 266.809 217.884 267.17 218.099 267.636H218.19C218.414 267.186 218.749 266.828 219.196 266.562C219.643 266.294 220.179 266.159 220.804 266.159C221.584 266.159 222.223 266.403 222.719 266.892C223.215 267.377 223.463 268.133 223.463 269.159V275H222.122V269.159C222.122 268.515 221.946 268.055 221.594 267.778C221.241 267.502 220.827 267.364 220.349 267.364C219.736 267.364 219.26 267.549 218.923 267.92C218.586 268.288 218.418 268.754 218.418 269.318V275H217.054V269.023C217.054 268.527 216.893 268.127 216.571 267.824C216.249 267.517 215.834 267.364 215.327 267.364C214.978 267.364 214.652 267.456 214.349 267.642C214.05 267.828 213.808 268.085 213.622 268.415C213.44 268.741 213.349 269.117 213.349 269.545V275H212.009ZM228.483 275.205C227.93 275.205 227.428 275.1 226.977 274.892C226.527 274.68 226.169 274.375 225.903 273.977C225.638 273.576 225.506 273.091 225.506 272.523C225.506 272.023 225.604 271.617 225.801 271.307C225.998 270.992 226.261 270.746 226.591 270.568C226.92 270.39 227.284 270.258 227.682 270.17C228.083 270.08 228.487 270.008 228.892 269.955C229.422 269.886 229.852 269.835 230.182 269.801C230.515 269.763 230.758 269.701 230.909 269.614C231.064 269.527 231.142 269.375 231.142 269.159V269.114C231.142 268.553 230.989 268.117 230.682 267.807C230.379 267.496 229.919 267.341 229.301 267.341C228.661 267.341 228.159 267.481 227.795 267.761C227.432 268.042 227.176 268.341 227.028 268.659L225.756 268.205C225.983 267.674 226.286 267.261 226.665 266.966C227.047 266.667 227.464 266.458 227.915 266.341C228.369 266.22 228.816 266.159 229.256 266.159C229.536 266.159 229.858 266.193 230.222 266.261C230.589 266.326 230.943 266.46 231.284 266.665C231.629 266.869 231.915 267.178 232.142 267.591C232.369 268.004 232.483 268.557 232.483 269.25V275H231.142V273.818H231.074C230.983 274.008 230.831 274.21 230.619 274.426C230.407 274.642 230.125 274.826 229.773 274.977C229.42 275.129 228.991 275.205 228.483 275.205ZM228.688 274C229.218 274 229.665 273.896 230.028 273.688C230.396 273.479 230.672 273.21 230.858 272.881C231.047 272.551 231.142 272.205 231.142 271.841V270.614C231.085 270.682 230.96 270.744 230.767 270.801C230.578 270.854 230.358 270.902 230.108 270.943C229.862 270.981 229.621 271.015 229.386 271.045C229.155 271.072 228.968 271.095 228.824 271.114C228.475 271.159 228.15 271.233 227.847 271.335C227.547 271.434 227.305 271.583 227.119 271.784C226.938 271.981 226.847 272.25 226.847 272.591C226.847 273.057 227.019 273.409 227.364 273.648C227.712 273.883 228.153 274 228.688 274ZM234.93 275V266.273H236.271V275H234.93ZM235.612 264.818C235.351 264.818 235.125 264.729 234.936 264.551C234.75 264.373 234.658 264.159 234.658 263.909C234.658 263.659 234.75 263.445 234.936 263.267C235.125 263.089 235.351 263 235.612 263C235.874 263 236.097 263.089 236.283 263.267C236.472 263.445 236.567 263.659 236.567 263.909C236.567 264.159 236.472 264.373 236.283 264.551C236.097 264.729 235.874 264.818 235.612 264.818ZM240.068 263.364V275H238.727V263.364H240.068ZM243.501 275.091C243.221 275.091 242.981 274.991 242.78 274.79C242.579 274.589 242.479 274.348 242.479 274.068C242.479 273.788 242.579 273.547 242.78 273.347C242.981 273.146 243.221 273.045 243.501 273.045C243.782 273.045 244.022 273.146 244.223 273.347C244.424 273.547 244.524 273.788 244.524 274.068C244.524 274.254 244.477 274.424 244.382 274.58C244.291 274.735 244.168 274.86 244.013 274.955C243.861 275.045 243.691 275.091 243.501 275.091ZM250.476 275.182C249.658 275.182 248.953 274.989 248.362 274.602C247.771 274.216 247.317 273.684 246.999 273.006C246.68 272.328 246.521 271.553 246.521 270.682C246.521 269.795 246.684 269.013 247.01 268.335C247.339 267.653 247.798 267.121 248.385 266.739C248.976 266.352 249.665 266.159 250.453 266.159C251.067 266.159 251.62 266.273 252.112 266.5C252.605 266.727 253.008 267.045 253.322 267.455C253.637 267.864 253.832 268.341 253.908 268.886H252.567C252.464 268.489 252.237 268.136 251.885 267.83C251.536 267.519 251.067 267.364 250.476 267.364C249.953 267.364 249.495 267.5 249.101 267.773C248.711 268.042 248.406 268.422 248.186 268.915C247.97 269.403 247.862 269.977 247.862 270.636C247.862 271.311 247.968 271.898 248.18 272.398C248.396 272.898 248.699 273.286 249.089 273.562C249.483 273.839 249.946 273.977 250.476 273.977C250.824 273.977 251.141 273.917 251.425 273.795C251.709 273.674 251.949 273.5 252.146 273.273C252.343 273.045 252.483 272.773 252.567 272.455H253.908C253.832 272.97 253.644 273.434 253.345 273.847C253.05 274.256 252.658 274.581 252.169 274.824C251.684 275.062 251.12 275.182 250.476 275.182ZM259.413 275.182C258.625 275.182 257.934 274.994 257.339 274.619C256.749 274.244 256.286 273.72 255.953 273.045C255.624 272.371 255.459 271.583 255.459 270.682C255.459 269.773 255.624 268.979 255.953 268.301C256.286 267.623 256.749 267.097 257.339 266.722C257.934 266.347 258.625 266.159 259.413 266.159C260.201 266.159 260.891 266.347 261.482 266.722C262.076 267.097 262.538 267.623 262.868 268.301C263.201 268.979 263.368 269.773 263.368 270.682C263.368 271.583 263.201 272.371 262.868 273.045C262.538 273.72 262.076 274.244 261.482 274.619C260.891 274.994 260.201 275.182 259.413 275.182ZM259.413 273.977C260.012 273.977 260.504 273.824 260.891 273.517C261.277 273.21 261.563 272.807 261.749 272.307C261.934 271.807 262.027 271.265 262.027 270.682C262.027 270.098 261.934 269.555 261.749 269.051C261.563 268.547 261.277 268.14 260.891 267.83C260.504 267.519 260.012 267.364 259.413 267.364C258.815 267.364 258.322 267.519 257.936 267.83C257.55 268.14 257.264 268.547 257.078 269.051C256.893 269.555 256.8 270.098 256.8 270.682C256.8 271.265 256.893 271.807 257.078 272.307C257.264 272.807 257.55 273.21 257.936 273.517C258.322 273.824 258.815 273.977 259.413 273.977ZM265.415 275V266.273H266.71V267.636H266.824C267.006 267.17 267.299 266.809 267.705 266.551C268.11 266.29 268.597 266.159 269.165 266.159C269.741 266.159 270.22 266.29 270.602 266.551C270.989 266.809 271.29 267.17 271.506 267.636H271.597C271.82 267.186 272.155 266.828 272.602 266.562C273.049 266.294 273.585 266.159 274.21 266.159C274.991 266.159 275.629 266.403 276.125 266.892C276.621 267.377 276.869 268.133 276.869 269.159V275H275.528V269.159C275.528 268.515 275.352 268.055 275 267.778C274.648 267.502 274.233 267.364 273.756 267.364C273.142 267.364 272.667 267.549 272.33 267.92C271.992 268.288 271.824 268.754 271.824 269.318V275H270.46V269.023C270.46 268.527 270.299 268.127 269.977 267.824C269.655 267.517 269.241 267.364 268.733 267.364C268.384 267.364 268.059 267.456 267.756 267.642C267.456 267.828 267.214 268.085 267.028 268.415C266.847 268.741 266.756 269.117 266.756 269.545V275H265.415Z" fill="white"/>
</g>
<g style="mix-blend-mode:difference">
<path d="M401.011 252V240.364H405.602C406.485 240.364 407.237 240.532 407.858 240.869C408.479 241.203 408.953 241.667 409.278 242.261C409.608 242.852 409.773 243.534 409.773 244.307C409.773 245.08 409.606 245.761 409.273 246.352C408.939 246.943 408.456 247.403 407.824 247.733C407.195 248.062 406.434 248.227 405.54 248.227H402.614V246.256H405.142C405.616 246.256 406.006 246.174 406.312 246.011C406.623 245.845 406.854 245.616 407.006 245.324C407.161 245.028 407.239 244.689 407.239 244.307C407.239 243.92 407.161 243.583 407.006 243.295C406.854 243.004 406.623 242.778 406.312 242.619C406.002 242.456 405.608 242.375 405.131 242.375H403.472V252H401.011ZM413.746 246.955V252H411.325V240.364H413.678V244.812H413.78C413.977 244.297 414.295 243.894 414.734 243.602C415.174 243.307 415.725 243.159 416.388 243.159C416.994 243.159 417.522 243.292 417.973 243.557C418.428 243.818 418.78 244.195 419.03 244.688C419.284 245.176 419.409 245.761 419.405 246.443V252H416.984V246.875C416.988 246.337 416.852 245.919 416.575 245.619C416.303 245.32 415.92 245.17 415.428 245.17C415.098 245.17 414.806 245.241 414.553 245.381C414.303 245.521 414.106 245.725 413.962 245.994C413.821 246.259 413.75 246.58 413.746 246.955ZM425.253 252.17C424.37 252.17 423.607 251.983 422.963 251.608C422.323 251.229 421.829 250.703 421.48 250.028C421.132 249.35 420.957 248.564 420.957 247.67C420.957 246.769 421.132 245.981 421.48 245.307C421.829 244.629 422.323 244.102 422.963 243.727C423.607 243.348 424.37 243.159 425.253 243.159C426.135 243.159 426.897 243.348 427.537 243.727C428.181 244.102 428.677 244.629 429.026 245.307C429.374 245.981 429.548 246.769 429.548 247.67C429.548 248.564 429.374 249.35 429.026 250.028C428.677 250.703 428.181 251.229 427.537 251.608C426.897 251.983 426.135 252.17 425.253 252.17ZM425.264 250.295C425.666 250.295 426.001 250.182 426.27 249.955C426.539 249.723 426.741 249.409 426.878 249.011C427.018 248.614 427.088 248.161 427.088 247.653C427.088 247.146 427.018 246.693 426.878 246.295C426.741 245.898 426.539 245.583 426.27 245.352C426.001 245.121 425.666 245.006 425.264 245.006C424.859 245.006 424.518 245.121 424.241 245.352C423.969 245.583 423.762 245.898 423.622 246.295C423.486 246.693 423.418 247.146 423.418 247.653C423.418 248.161 423.486 248.614 423.622 249.011C423.762 249.409 423.969 249.723 424.241 249.955C424.518 250.182 424.859 250.295 425.264 250.295ZM433.543 246.955V252H431.122V243.273H433.429V244.812H433.531C433.724 244.305 434.048 243.903 434.503 243.608C434.957 243.309 435.509 243.159 436.156 243.159C436.762 243.159 437.291 243.292 437.741 243.557C438.192 243.822 438.543 244.201 438.793 244.693C439.043 245.182 439.168 245.765 439.168 246.443V252H436.747V246.875C436.751 246.341 436.615 245.924 436.338 245.625C436.062 245.322 435.681 245.17 435.196 245.17C434.87 245.17 434.582 245.241 434.332 245.381C434.086 245.521 433.893 245.725 433.753 245.994C433.616 246.259 433.546 246.58 433.543 246.955ZM445.053 252.17C444.155 252.17 443.382 251.989 442.734 251.625C442.09 251.258 441.594 250.739 441.246 250.068C440.897 249.394 440.723 248.597 440.723 247.676C440.723 246.778 440.897 245.991 441.246 245.312C441.594 244.634 442.085 244.106 442.717 243.727C443.354 243.348 444.1 243.159 444.956 243.159C445.532 243.159 446.068 243.252 446.564 243.438C447.064 243.619 447.5 243.894 447.871 244.261C448.246 244.629 448.537 245.091 448.746 245.648C448.954 246.201 449.058 246.848 449.058 247.591V248.256H441.689V246.756H446.78C446.78 246.407 446.704 246.098 446.553 245.83C446.401 245.561 446.191 245.35 445.922 245.199C445.657 245.044 445.348 244.966 444.996 244.966C444.628 244.966 444.303 245.051 444.018 245.222C443.738 245.388 443.518 245.614 443.359 245.898C443.2 246.178 443.119 246.491 443.115 246.835V248.261C443.115 248.693 443.195 249.066 443.354 249.381C443.517 249.695 443.746 249.938 444.041 250.108C444.337 250.278 444.687 250.364 445.092 250.364C445.361 250.364 445.607 250.326 445.831 250.25C446.054 250.174 446.246 250.061 446.405 249.909C446.564 249.758 446.685 249.572 446.768 249.352L449.007 249.5C448.893 250.038 448.661 250.508 448.308 250.909C447.96 251.307 447.509 251.617 446.956 251.841C446.407 252.061 445.772 252.17 445.053 252.17Z" fill="white"/>
<path d="M405 275.159C404.144 275.159 403.415 274.926 402.812 274.46C402.21 273.991 401.75 273.311 401.432 272.42C401.114 271.527 400.955 270.447 400.955 269.182C400.955 267.924 401.114 266.85 401.432 265.96C401.754 265.066 402.216 264.384 402.818 263.915C403.424 263.441 404.152 263.205 405 263.205C405.848 263.205 406.574 263.441 407.176 263.915C407.782 264.384 408.244 265.066 408.562 265.96C408.884 266.85 409.045 267.924 409.045 269.182C409.045 270.447 408.886 271.527 408.568 272.42C408.25 273.311 407.79 273.991 407.188 274.46C406.585 274.926 405.856 275.159 405 275.159ZM405 273.909C405.848 273.909 406.508 273.5 406.977 272.682C407.447 271.864 407.682 270.697 407.682 269.182C407.682 268.174 407.574 267.316 407.358 266.608C407.146 265.9 406.839 265.36 406.438 264.989C406.04 264.617 405.561 264.432 405 264.432C404.159 264.432 403.502 264.847 403.028 265.676C402.555 266.502 402.318 267.67 402.318 269.182C402.318 270.189 402.424 271.045 402.636 271.75C402.848 272.455 403.153 272.991 403.551 273.358C403.953 273.725 404.436 273.909 405 273.909ZM411.256 275L416.46 264.705V264.614H410.46V263.364H417.915V264.682L412.733 275H411.256ZM423.578 275.159C422.722 275.159 421.993 274.926 421.391 274.46C420.788 273.991 420.328 273.311 420.01 272.42C419.692 271.527 419.533 270.447 419.533 269.182C419.533 267.924 419.692 266.85 420.01 265.96C420.332 265.066 420.794 264.384 421.396 263.915C422.002 263.441 422.73 263.205 423.578 263.205C424.427 263.205 425.152 263.441 425.754 263.915C426.36 264.384 426.822 265.066 427.141 265.96C427.463 266.85 427.624 267.924 427.624 269.182C427.624 270.447 427.464 271.527 427.146 272.42C426.828 273.311 426.368 273.991 425.766 274.46C425.163 274.926 424.434 275.159 423.578 275.159ZM423.578 273.909C424.427 273.909 425.086 273.5 425.555 272.682C426.025 271.864 426.26 270.697 426.26 269.182C426.26 268.174 426.152 267.316 425.936 266.608C425.724 265.9 425.417 265.36 425.016 264.989C424.618 264.617 424.139 264.432 423.578 264.432C422.737 264.432 422.08 264.847 421.607 265.676C421.133 266.502 420.896 267.67 420.896 269.182C420.896 270.189 421.002 271.045 421.214 271.75C421.427 272.455 421.732 272.991 422.129 273.358C422.531 273.725 423.014 273.909 423.578 273.909ZM433.646 275.159C433.169 275.152 432.692 275.061 432.214 274.886C431.737 274.712 431.302 274.419 430.908 274.006C430.514 273.589 430.197 273.027 429.959 272.318C429.72 271.606 429.601 270.712 429.601 269.636C429.601 268.606 429.697 267.693 429.891 266.898C430.084 266.098 430.364 265.426 430.732 264.881C431.099 264.331 431.542 263.915 432.061 263.631C432.584 263.347 433.173 263.205 433.828 263.205C434.48 263.205 435.059 263.335 435.567 263.597C436.078 263.854 436.495 264.214 436.817 264.676C437.139 265.138 437.347 265.67 437.442 266.273H436.055C435.927 265.75 435.677 265.316 435.305 264.972C434.934 264.627 434.442 264.455 433.828 264.455C432.927 264.455 432.216 264.847 431.697 265.631C431.182 266.415 430.923 267.515 430.919 268.932H431.01C431.222 268.61 431.474 268.335 431.766 268.108C432.061 267.877 432.387 267.699 432.743 267.574C433.099 267.449 433.476 267.386 433.874 267.386C434.54 267.386 435.15 267.553 435.703 267.886C436.256 268.216 436.699 268.672 437.033 269.256C437.366 269.835 437.533 270.5 437.533 271.25C437.533 271.97 437.372 272.629 437.05 273.227C436.728 273.822 436.275 274.295 435.692 274.648C435.112 274.996 434.43 275.167 433.646 275.159ZM433.646 273.909C434.124 273.909 434.552 273.79 434.93 273.551C435.313 273.312 435.614 272.992 435.834 272.591C436.057 272.189 436.169 271.742 436.169 271.25C436.169 270.769 436.061 270.331 435.845 269.938C435.633 269.54 435.339 269.223 434.964 268.989C434.593 268.754 434.169 268.636 433.692 268.636C433.332 268.636 432.997 268.708 432.686 268.852C432.375 268.992 432.103 269.186 431.868 269.432C431.637 269.678 431.455 269.96 431.322 270.278C431.19 270.593 431.124 270.924 431.124 271.273C431.124 271.735 431.232 272.167 431.447 272.568C431.667 272.97 431.966 273.294 432.345 273.54C432.728 273.786 433.161 273.909 433.646 273.909ZM443.631 275.159C443.153 275.152 442.676 275.061 442.199 274.886C441.722 274.712 441.286 274.419 440.892 274.006C440.498 273.589 440.182 273.027 439.943 272.318C439.705 271.606 439.585 270.712 439.585 269.636C439.585 268.606 439.682 267.693 439.875 266.898C440.068 266.098 440.348 265.426 440.716 264.881C441.083 264.331 441.527 263.915 442.045 263.631C442.568 263.347 443.157 263.205 443.812 263.205C444.464 263.205 445.044 263.335 445.551 263.597C446.063 263.854 446.479 264.214 446.801 264.676C447.123 265.138 447.331 265.67 447.426 266.273H446.04C445.911 265.75 445.661 265.316 445.29 264.972C444.919 264.627 444.426 264.455 443.812 264.455C442.911 264.455 442.201 264.847 441.682 265.631C441.167 266.415 440.907 267.515 440.903 268.932H440.994C441.206 268.61 441.458 268.335 441.75 268.108C442.045 267.877 442.371 267.699 442.727 267.574C443.083 267.449 443.46 267.386 443.858 267.386C444.525 267.386 445.134 267.553 445.688 267.886C446.241 268.216 446.684 268.672 447.017 269.256C447.35 269.835 447.517 270.5 447.517 271.25C447.517 271.97 447.356 272.629 447.034 273.227C446.712 273.822 446.259 274.295 445.676 274.648C445.097 274.996 444.415 275.167 443.631 275.159ZM443.631 273.909C444.108 273.909 444.536 273.79 444.915 273.551C445.297 273.312 445.598 272.992 445.818 272.591C446.042 272.189 446.153 271.742 446.153 271.25C446.153 270.769 446.045 270.331 445.83 269.938C445.617 269.54 445.324 269.223 444.949 268.989C444.578 268.754 444.153 268.636 443.676 268.636C443.316 268.636 442.981 268.708 442.67 268.852C442.36 268.992 442.087 269.186 441.852 269.432C441.621 269.678 441.439 269.96 441.307 270.278C441.174 270.593 441.108 270.924 441.108 271.273C441.108 271.735 441.216 272.167 441.432 272.568C441.652 272.97 441.951 273.294 442.33 273.54C442.712 273.786 443.146 273.909 443.631 273.909ZM453.479 275.159C452.698 275.159 452.009 275.021 451.411 274.744C450.816 274.464 450.352 274.08 450.018 273.591C449.685 273.098 449.52 272.538 449.524 271.909C449.52 271.417 449.617 270.962 449.814 270.545C450.011 270.125 450.28 269.775 450.621 269.494C450.965 269.21 451.35 269.03 451.774 268.955V268.886C451.217 268.742 450.774 268.43 450.445 267.949C450.115 267.464 449.952 266.913 449.956 266.295C449.952 265.705 450.102 265.176 450.405 264.71C450.708 264.244 451.125 263.877 451.655 263.608C452.189 263.339 452.797 263.205 453.479 263.205C454.153 263.205 454.755 263.339 455.286 263.608C455.816 263.877 456.232 264.244 456.536 264.71C456.842 265.176 456.998 265.705 457.001 266.295C456.998 266.913 456.829 267.464 456.496 267.949C456.166 268.43 455.729 268.742 455.183 268.886V268.955C455.604 269.03 455.982 269.21 456.32 269.494C456.657 269.775 456.926 270.125 457.126 270.545C457.327 270.962 457.429 271.417 457.433 271.909C457.429 272.538 457.259 273.098 456.922 273.591C456.589 274.08 456.125 274.464 455.53 274.744C454.939 275.021 454.255 275.159 453.479 275.159ZM453.479 273.909C454.005 273.909 454.46 273.824 454.842 273.653C455.225 273.483 455.52 273.242 455.729 272.932C455.937 272.621 456.043 272.258 456.047 271.841C456.043 271.402 455.929 271.013 455.706 270.676C455.482 270.339 455.178 270.074 454.791 269.881C454.409 269.687 453.971 269.591 453.479 269.591C452.982 269.591 452.539 269.687 452.149 269.881C451.763 270.074 451.458 270.339 451.234 270.676C451.015 271.013 450.907 271.402 450.911 271.841C450.907 272.258 451.007 272.621 451.212 272.932C451.42 273.242 451.717 273.483 452.104 273.653C452.49 273.824 452.948 273.909 453.479 273.909ZM453.479 268.386C453.895 268.386 454.265 268.303 454.587 268.136C454.912 267.97 455.168 267.737 455.354 267.438C455.539 267.138 455.634 266.788 455.638 266.386C455.634 265.992 455.541 265.65 455.359 265.358C455.178 265.062 454.926 264.835 454.604 264.676C454.282 264.513 453.907 264.432 453.479 264.432C453.043 264.432 452.662 264.513 452.337 264.676C452.011 264.835 451.759 265.062 451.581 265.358C451.403 265.65 451.316 265.992 451.32 266.386C451.316 266.788 451.405 267.138 451.587 267.438C451.772 267.737 452.028 267.97 452.354 268.136C452.679 268.303 453.054 268.386 453.479 268.386ZM459.611 275V273.977L463.452 269.773C463.902 269.28 464.274 268.852 464.565 268.489C464.857 268.121 465.073 267.777 465.213 267.455C465.357 267.129 465.429 266.788 465.429 266.432C465.429 266.023 465.33 265.669 465.134 265.369C464.94 265.07 464.675 264.839 464.338 264.676C464.001 264.513 463.622 264.432 463.202 264.432C462.755 264.432 462.365 264.525 462.031 264.71C461.702 264.892 461.446 265.148 461.264 265.477C461.086 265.807 460.997 266.193 460.997 266.636H459.656C459.656 265.955 459.813 265.356 460.128 264.841C460.442 264.326 460.87 263.924 461.412 263.636C461.957 263.348 462.569 263.205 463.247 263.205C463.929 263.205 464.533 263.348 465.06 263.636C465.586 263.924 465.999 264.312 466.298 264.801C466.598 265.29 466.747 265.833 466.747 266.432C466.747 266.86 466.67 267.278 466.514 267.688C466.363 268.093 466.098 268.545 465.719 269.045C465.344 269.542 464.823 270.148 464.156 270.864L461.543 273.659V273.75H466.952V275H459.611ZM473.23 275.159C472.48 275.159 471.812 275.03 471.224 274.773C470.641 274.515 470.177 274.157 469.832 273.699C469.491 273.237 469.306 272.701 469.276 272.091H470.707C470.738 272.466 470.866 272.79 471.094 273.062C471.321 273.331 471.618 273.54 471.986 273.688C472.353 273.835 472.76 273.909 473.207 273.909C473.707 273.909 474.151 273.822 474.537 273.648C474.923 273.473 475.226 273.231 475.446 272.92C475.666 272.61 475.776 272.25 475.776 271.841C475.776 271.413 475.67 271.036 475.457 270.71C475.245 270.381 474.935 270.123 474.526 269.938C474.116 269.752 473.616 269.659 473.026 269.659H472.094V268.409H473.026C473.488 268.409 473.893 268.326 474.241 268.159C474.594 267.992 474.868 267.758 475.065 267.455C475.266 267.152 475.366 266.795 475.366 266.386C475.366 265.992 475.279 265.65 475.105 265.358C474.931 265.066 474.685 264.839 474.366 264.676C474.052 264.513 473.681 264.432 473.253 264.432C472.851 264.432 472.473 264.506 472.116 264.653C471.764 264.797 471.476 265.008 471.253 265.284C471.029 265.557 470.908 265.886 470.889 266.273H469.526C469.548 265.663 469.732 265.129 470.077 264.67C470.421 264.208 470.872 263.848 471.429 263.591C471.99 263.333 472.605 263.205 473.276 263.205C473.995 263.205 474.613 263.35 475.128 263.642C475.643 263.93 476.039 264.311 476.315 264.784C476.592 265.258 476.73 265.769 476.73 266.318C476.73 266.973 476.558 267.532 476.213 267.994C475.872 268.456 475.408 268.777 474.821 268.955V269.045C475.556 269.167 476.13 269.479 476.543 269.983C476.955 270.483 477.162 271.102 477.162 271.841C477.162 272.473 476.99 273.042 476.645 273.545C476.304 274.045 475.838 274.439 475.247 274.727C474.656 275.015 473.984 275.159 473.23 275.159ZM483.281 275.159C482.425 275.159 481.696 274.926 481.094 274.46C480.491 273.991 480.031 273.311 479.713 272.42C479.395 271.527 479.236 270.447 479.236 269.182C479.236 267.924 479.395 266.85 479.713 265.96C480.035 265.066 480.497 264.384 481.099 263.915C481.705 263.441 482.433 263.205 483.281 263.205C484.13 263.205 484.855 263.441 485.457 263.915C486.063 264.384 486.526 265.066 486.844 265.96C487.166 266.85 487.327 267.924 487.327 269.182C487.327 270.447 487.168 271.527 486.849 272.42C486.531 273.311 486.071 273.991 485.469 274.46C484.866 274.926 484.137 275.159 483.281 275.159ZM483.281 273.909C484.13 273.909 484.789 273.5 485.259 272.682C485.728 271.864 485.963 270.697 485.963 269.182C485.963 268.174 485.855 267.316 485.639 266.608C485.427 265.9 485.12 265.36 484.719 264.989C484.321 264.617 483.842 264.432 483.281 264.432C482.44 264.432 481.783 264.847 481.31 265.676C480.836 266.502 480.599 267.67 480.599 269.182C480.599 270.189 480.705 271.045 480.918 271.75C481.13 272.455 481.435 272.991 481.832 273.358C482.234 273.725 482.717 273.909 483.281 273.909ZM493.418 275.159C492.668 275.159 491.999 275.03 491.412 274.773C490.829 274.515 490.365 274.157 490.02 273.699C489.679 273.237 489.493 272.701 489.463 272.091H490.895C490.925 272.466 491.054 272.79 491.281 273.062C491.509 273.331 491.806 273.54 492.173 273.688C492.541 273.835 492.948 273.909 493.395 273.909C493.895 273.909 494.338 273.822 494.724 273.648C495.111 273.473 495.414 273.231 495.634 272.92C495.853 272.61 495.963 272.25 495.963 271.841C495.963 271.413 495.857 271.036 495.645 270.71C495.433 270.381 495.122 270.123 494.713 269.938C494.304 269.752 493.804 269.659 493.213 269.659H492.281V268.409H493.213C493.675 268.409 494.08 268.326 494.429 268.159C494.781 267.992 495.056 267.758 495.253 267.455C495.454 267.152 495.554 266.795 495.554 266.386C495.554 265.992 495.467 265.65 495.293 265.358C495.118 265.066 494.872 264.839 494.554 264.676C494.24 264.513 493.868 264.432 493.44 264.432C493.039 264.432 492.66 264.506 492.304 264.653C491.952 264.797 491.664 265.008 491.44 265.284C491.217 265.557 491.096 265.886 491.077 266.273H489.713C489.736 265.663 489.92 265.129 490.264 264.67C490.609 264.208 491.06 263.848 491.616 263.591C492.177 263.333 492.793 263.205 493.463 263.205C494.183 263.205 494.8 263.35 495.315 263.642C495.83 263.93 496.226 264.311 496.503 264.784C496.779 265.258 496.918 265.769 496.918 266.318C496.918 266.973 496.745 267.532 496.401 267.994C496.06 268.456 495.596 268.777 495.009 268.955V269.045C495.743 269.167 496.317 269.479 496.73 269.983C497.143 270.483 497.349 271.102 497.349 271.841C497.349 272.473 497.177 273.042 496.832 273.545C496.491 274.045 496.026 274.439 495.435 274.727C494.844 275.015 494.171 275.159 493.418 275.159Z" fill="white"/>
</g>
</g>
<rect x="31" y="15" width="499" height="298" rx="31" stroke="url(#paint1_linear_1629_5231)" stroke-width="2" shape-rendering="crispEdges"/>
</g>
<defs>
<filter id="filter0_bd_1629_5231" x="-70" y="-86" width="701" height="500" filterUnits="userSpaceOnUse" color-interpolation-filters="sRGB">
<feFlood flood-opacity="0" result="BackgroundImageFix"/>
<feGaussianBlur in="BackgroundImageFix" stdDeviation="50"/>
<feComposite in2="SourceAlpha" operator="in" result="effect1_backgroundBlur_1629_5231"/>
<feColorMatrix in="SourceAlpha" type="matrix" values="0 0 0 0 0 0 0 0 0 0 0 0 0 0 0 0 0 0 127 0" result="hardAlpha"/>
<feOffset dy="16"/>
<feGaussianBlur stdDeviation="15"/>
<feComposite in2="hardAlpha" operator="out"/>
<feColorMatrix type="matrix" values="0 0 0 0 0 0 0 0 0 0 0 0 0 0 0 0 0 0 0.1 0"/>
<feBlend mode="normal" in2="effect1_backgroundBlur_1629_5231" result="effect2_dropShadow_1629_5231"/>
<feBlend mode="normal" in="SourceGraphic" in2="effect2_dropShadow_1629_5231" result="shape"/>
</filter>
<filter id="filter1_f_1629_5231" x="-49.325" y="-79.9878" width="583.743" height="429.142" filterUnits="userSpaceOnUse" color-interpolation-filters="sRGB">
<feFlood flood-opacity="0" result="BackgroundImageFix"/>
<feBlend mode="normal" in="SourceGraphic" in2="BackgroundImageFix" result="shape"/>
<feGaussianBlur stdDeviation="50" result="effect1_foregroundBlur_1629_5231"/>
</filter>
<filter id="filter2_b_1629_5231" x="12" y="38" width="299" height="120" filterUnits="userSpaceOnUse" color-interpolation-filters="sRGB">
<feFlood flood-opacity="0" result="BackgroundImageFix"/>
<feGaussianBlur in="BackgroundImageFix" stdDeviation="25"/>
<feComposite in2="SourceAlpha" operator="in" result="effect1_backgroundBlur_1629_5231"/>
<feBlend mode="normal" in="SourceGraphic" in2="effect1_backgroundBlur_1629_5231" result="shape"/>
</filter>
<linearGradient id="paint0_linear_1629_5231" x1="113.532" y1="15.0366" x2="281.374" y2="187.106" gradientUnits="userSpaceOnUse">
<stop stop-color="#F14FFF"/>
<stop offset="0.495" stop-color="#866DFE"/>
<stop offset="1" stop-color="#0093FD"/>
</linearGradient>
<linearGradient id="paint1_linear_1629_5231" x1="430.5" y1="14" x2="130.5" y2="314" gradientUnits="userSpaceOnUse">
<stop stop-color="#AAF0FF"/>
<stop offset="0.258599" stop-color="#666666"/>
<stop offset="0.901258" stop-color="#E2A6FF" stop-opacity="0"/>
<stop offset="1" stop-color="#FBE3FF"/>
</linearGradient>
<clipPath id="clip0_1629_5231">
<rect x="30" y="14" width="501" height="300" rx="32" fill="white"/>
</clipPath>
</defs>
</svg>
